Muli-Semi-BoldItalic.ufo
<glyph name="quotedbl" format="1">
  <advance width="737"/>
  <unicode hex="0022"/>
  <outline>
    <contour>
      <point x="112" y="959" type="line"/>
      <point x="124" y="1456" type="line"/>
      <point x="346" y="1456" type="line"/>
      <point x="241" y="959" type="line"/>
    </contour>
    <contour>
      <point x="442" y="959" type="line"/>
      <point x="454" y="1456" type="line"/>
      <point x="675" y="1456" type="line"/>
      <point x="571" y="959" type="line"/>
    </contour>
  </outline>
</glyph>
<glyph name="percent" format="1">
  <advance width="1845"/>
  <unicode hex="0025"/>
  <outline>
    <contour>
      <point x="328" y="1034" type="curve" smooth="yes"/>
      <point x="328" y="923"/>
      <point x="373" y="867"/>
      <point x="470" y="867" type="curve" smooth="yes"/>
      <point x="585" y="867"/>
      <point x="647" y="946"/>
      <point x="665" y="1101" type="curve" smooth="yes"/>
      <point x="668" y="1125"/>
      <point x="669" y="1147"/>
      <point x="669" y="1167" type="curve" smooth="yes"/>
      <point x="669" y="1273"/>
      <point x="629" y="1334"/>
      <point x="528" y="1334" type="curve" smooth="yes"/>
      <point x="390" y="1334"/>
      <point x="328" y="1207"/>
    </contour>
    <contour>
      <point x="545" y="1478" type="curve" smooth="yes"/>
      <point x="748" y="1478"/>
      <point x="861" y="1354"/>
      <point x="861" y="1163" type="curve" smooth="yes"/>
      <point x="861" y="893"/>
      <point x="689" y="723"/>
      <point x="452" y="723" type="curve" smooth="yes"/>
      <point x="250" y="723"/>
      <point x="136" y="841"/>
      <point x="136" y="1034" type="curve" smooth="yes"/>
      <point x="136" y="1298"/>
      <point x="305" y="1478"/>
    </contour>
    <contour>
      <point x="283" y="0" type="line"/>
      <point x="1386" y="1456" type="line"/>
      <point x="1573" y="1456" type="line"/>
      <point x="468" y="0" type="line"/>
    </contour>
    <contour>
      <point x="1176" y="288" type="curve" smooth="yes"/>
      <point x="1176" y="177"/>
      <point x="1221" y="122"/>
      <point x="1318" y="122" type="curve" smooth="yes"/>
      <point x="1433" y="122"/>
      <point x="1495" y="201"/>
      <point x="1514" y="355" type="curve" smooth="yes"/>
      <point x="1517" y="379"/>
      <point x="1518" y="400"/>
      <point x="1518" y="421" type="curve" smooth="yes"/>
      <point x="1518" y="527"/>
      <point x="1477" y="589"/>
      <point x="1376" y="589" type="curve" smooth="yes"/>
      <point x="1238" y="589"/>
      <point x="1176" y="461"/>
    </contour>
    <contour>
      <point x="1394" y="732" type="curve" smooth="yes"/>
      <point x="1598" y="732"/>
      <point x="1708" y="594"/>
      <point x="1708" y="412" type="curve" smooth="yes"/>
      <point x="1708" y="162"/>
      <point x="1535" y="-22"/>
      <point x="1300" y="-22" type="curve" smooth="yes"/>
      <point x="1098" y="-22"/>
      <point x="985" y="111"/>
      <point x="985" y="295" type="curve" smooth="yes"/>
      <point x="985" y="541"/>
      <point x="1153" y="732"/>
    </contour>
  </outline>
</glyph>
<glyph name="parenleft" format="1">
  <advance width="669"/>
  <unicode hex="0028"/>
  <outline>
    <contour>
      <point x="304" y="-171" type="line"/>
      <point x="195" y="33"/>
      <point x="117" y="280"/>
      <point x="117" y="528" type="curve" smooth="yes"/>
      <point x="117" y="574"/>
      <point x="119" y="619"/>
      <point x="125" y="665" type="curve" smooth="yes"/>
      <point x="163" y="972"/>
      <point x="306" y="1253"/>
      <point x="505" y="1516" type="curve"/>
      <point x="723" y="1516" type="line"/>
      <point x="518" y="1247"/>
      <point x="383" y="948"/>
      <point x="349" y="663" type="curve" smooth="yes"/>
      <point x="344" y="620"/>
      <point x="341" y="575"/>
      <point x="341" y="530" type="curve" smooth="yes"/>
      <point x="341" y="298"/>
      <point x="409" y="43"/>
      <point x="515" y="-171" type="curve"/>
    </contour>
  </outline>
</glyph>
<glyph name="parenright" format="1">
  <advance width="669"/>
  <unicode hex="0029"/>
  <outline>
    <contour>
      <point x="-53" y="-191" type="line"/>
      <point x="151" y="78"/>
      <point x="286" y="377"/>
      <point x="321" y="661" type="curve" smooth="yes"/>
      <point x="326" y="704"/>
      <point x="329" y="747"/>
      <point x="329" y="792" type="curve" smooth="yes"/>
      <point x="329" y="1025"/>
      <point x="262" y="1280"/>
      <point x="155" y="1496" type="curve"/>
      <point x="365" y="1496" type="line"/>
      <point x="475" y="1292"/>
      <point x="553" y="1045"/>
      <point x="553" y="797" type="curve" smooth="yes"/>
      <point x="553" y="751"/>
      <point x="551" y="705"/>
      <point x="545" y="660" type="curve" smooth="yes"/>
      <point x="507" y="353"/>
      <point x="364" y="72"/>
      <point x="165" y="-191" type="curve"/>
    </contour>
  </outline>
</glyph>
<glyph name="plus" format="1">
  <advance width="1242"/>
  <unicode hex="002B"/>
  <outline>
    <contour>
      <point x="455" y="87" type="line"/>
      <point x="504" y="488" type="line"/>
      <point x="124" y="488" type="line"/>
      <point x="146" y="676" type="line"/>
      <point x="529" y="676" type="line"/>
      <point x="578" y="1073" type="line"/>
      <point x="786" y="1073" type="line"/>
      <point x="737" y="676" type="line"/>
      <point x="1119" y="676" type="line"/>
      <point x="1097" y="488" type="line"/>
      <point x="714" y="488" type="line"/>
      <point x="664" y="87" type="line"/>
    </contour>
  </outline>
</glyph>
<glyph name="comma" format="1">
  <advance width="523"/>
  <unicode hex="002C"/>
  <outline>
    <contour>
      <point x="29" y="-251" type="line"/>
      <point x="201" y="250" type="line"/>
      <point x="453" y="250" type="line"/>
      <point x="216" y="-251" type="line"/>
    </contour>
  </outline>
</glyph>
<glyph name="zero" format="1">
  <advance width="1256"/>
  <unicode hex="0030"/>
  <outline>
    <contour>
      <point x="566" y="174" type="curve" smooth="yes"/>
      <point x="764" y="174"/>
      <point x="856" y="412"/>
      <point x="896" y="736" type="curve" smooth="yes"/>
      <point x="904" y="803"/>
      <point x="909" y="868"/>
      <point x="909" y="929" type="curve" smooth="yes"/>
      <point x="909" y="1133"/>
      <point x="855" y="1286"/>
      <point x="702" y="1286" type="curve" smooth="yes"/>
      <point x="496" y="1286"/>
      <point x="397" y="1029"/>
      <point x="361" y="737" type="curve" smooth="yes"/>
      <point x="352" y="664"/>
      <point x="347" y="596"/>
      <point x="347" y="533" type="curve" smooth="yes"/>
      <point x="347" y="317"/>
      <point x="406" y="174"/>
    </contour>
    <contour>
      <point x="538" y="-23" type="curve" smooth="yes"/>
      <point x="255" y="-23"/>
      <point x="113" y="204"/>
      <point x="113" y="552" type="curve" smooth="yes"/>
      <point x="113" y="610"/>
      <point x="117" y="672"/>
      <point x="125" y="737" type="curve" smooth="yes"/>
      <point x="182" y="1203"/>
      <point x="391" y="1483"/>
      <point x="724" y="1483" type="curve" smooth="yes"/>
      <point x="1008" y="1483"/>
      <point x="1145" y="1271"/>
      <point x="1145" y="928" type="curve" smooth="yes"/>
      <point x="1145" y="868"/>
      <point x="1141" y="804"/>
      <point x="1133" y="737" type="curve" smooth="yes"/>
      <point x="1078" y="287"/>
      <point x="873" y="-23"/>
    </contour>
  </outline>
</glyph>
<glyph name="three" format="1">
  <advance width="1256"/>
  <unicode hex="0033"/>
  <outline>
    <contour>
      <point x="832" y="451" type="curve" smooth="yes"/>
      <point x="832" y="598"/>
      <point x="696" y="663"/>
      <point x="484" y="663" type="curve" smooth="yes"/>
      <point x="462" y="663" type="line" smooth="yes"/>
      <point x="396" y="661" type="line"/>
      <point x="417" y="856" type="line"/>
      <point x="486" y="856" type="line" smooth="yes"/>
      <point x="732" y="856"/>
      <point x="852" y="914"/>
      <point x="875" y="1101" type="curve" smooth="yes"/>
      <point x="876" y="1108"/>
      <point x="876" y="1115"/>
      <point x="876" y="1121" type="curve" smooth="yes"/>
      <point x="876" y="1233"/>
      <point x="757" y="1286"/>
      <point x="634" y="1286" type="curve" smooth="yes"/>
      <point x="468" y="1286"/>
      <point x="361" y="1211"/>
      <point x="301" y="1172" type="curve"/>
      <point x="217" y="1333" type="line"/>
      <point x="358" y="1433"/>
      <point x="474" y="1483"/>
      <point x="687" y="1483" type="curve" smooth="yes"/>
      <point x="907" y="1483"/>
      <point x="1109" y="1374"/>
      <point x="1109" y="1153" type="curve" smooth="yes"/>
      <point x="1109" y="1138"/>
      <point x="1108" y="1121"/>
      <point x="1106" y="1105" type="curve" smooth="yes"/>
      <point x="1086" y="949"/>
      <point x="984" y="800"/>
      <point x="794" y="765" type="curve"/>
      <point x="966" y="732"/>
      <point x="1058" y="613"/>
      <point x="1058" y="458" type="curve" smooth="yes"/>
      <point x="1058" y="442"/>
      <point x="1057" y="426"/>
      <point x="1055" y="409" type="curve" smooth="yes"/>
      <point x="1021" y="138"/>
      <point x="778" y="-23"/>
      <point x="514" y="-23" type="curve" smooth="yes"/>
      <point x="240" y="-23"/>
      <point x="96" y="90"/>
      <point x="93" y="92" type="curve"/>
      <point x="183" y="267" type="line"/>
      <point x="193" y="262"/>
      <point x="336" y="174"/>
      <point x="507" y="174" type="curve" smooth="yes"/>
      <point x="698" y="174"/>
      <point x="832" y="275"/>
    </contour>
  </outline>
</glyph>
<glyph name="six" format="1">
  <advance width="1256"/>
  <unicode hex="0036"/>
  <outline>
    <contour>
      <point x="583" y="-23" type="curve" smooth="yes"/>
      <point x="276" y="-23"/>
      <point x="133" y="192"/>
      <point x="133" y="526" type="curve" smooth="yes"/>
      <point x="133" y="580"/>
      <point x="137" y="637"/>
      <point x="144" y="696" type="curve" smooth="yes"/>
      <point x="197" y="1128"/>
      <point x="436" y="1483"/>
      <point x="820" y="1483" type="curve" smooth="yes"/>
      <point x="967" y="1483"/>
      <point x="1086" y="1439"/>
      <point x="1164" y="1359" type="curve"/>
      <point x="1067" y="1188" type="line"/>
      <point x="992" y="1253"/>
      <point x="903" y="1286"/>
      <point x="798" y="1286" type="curve" smooth="yes"/>
      <point x="606" y="1286"/>
      <point x="464" y="1100"/>
      <point x="409" y="859" type="curve" smooth="yes"/>
      <point x="404" y="837"/>
      <point x="400" y="813"/>
      <point x="396" y="790" type="curve"/>
      <point x="486" y="900"/>
      <point x="601" y="954"/>
      <point x="730" y="954" type="curve" smooth="yes"/>
      <point x="981" y="954"/>
      <point x="1138" y="800"/>
      <point x="1138" y="551" type="curve" smooth="yes"/>
      <point x="1138" y="526"/>
      <point x="1136" y="499"/>
      <point x="1133" y="472" type="curve" smooth="yes"/>
      <point x="1099" y="191"/>
      <point x="885" y="-23"/>
    </contour>
    <contour>
      <point x="899" y="525" type="curve" smooth="yes"/>
      <point x="899" y="664"/>
      <point x="830" y="766"/>
      <point x="684" y="766" type="curve" smooth="yes"/>
      <point x="502" y="766"/>
      <point x="371" y="626"/>
      <point x="371" y="429" type="curve" smooth="yes"/>
      <point x="371" y="268"/>
      <point x="473" y="174"/>
      <point x="604" y="174" type="curve" smooth="yes"/>
      <point x="775" y="174"/>
      <point x="899" y="326"/>
    </contour>
  </outline>
</glyph>
<glyph name="seven" format="1">
  <advance width="1256"/>
  <unicode hex="0037"/>
  <outline>
    <contour>
      <point x="242" y="0" type="line"/>
      <point x="928" y="1266" type="line"/>
      <point x="223" y="1266" type="line"/>
      <point x="246" y="1456" type="line"/>
      <point x="1215" y="1456" type="line"/>
      <point x="1194" y="1282" type="line"/>
      <point x="488" y="0" type="line"/>
    </contour>
  </outline>
</glyph>
<glyph name="eight" format="1">
  <advance width="1258"/>
  <unicode hex="0038"/>
  <outline>
    <contour>
      <point x="858" y="761" type="curve"/>
      <point x="990" y="700"/>
      <point x="1081" y="575"/>
      <point x="1081" y="428" type="curve" smooth="yes"/>
      <point x="1081" y="413"/>
      <point x="1080" y="398"/>
      <point x="1078" y="383" type="curve" smooth="yes"/>
      <point x="1046" y="121"/>
      <point x="796" y="-23"/>
      <point x="541" y="-23" type="curve" smooth="yes"/>
      <point x="287" y="-23"/>
      <point x="96" y="106"/>
      <point x="96" y="335" type="curve" smooth="yes"/>
      <point x="96" y="352"/>
      <point x="97" y="370"/>
      <point x="99" y="389" type="curve" smooth="yes"/>
      <point x="120" y="558"/>
      <point x="240" y="693"/>
      <point x="414" y="764" type="curve"/>
      <point x="297" y="825"/>
      <point x="215" y="922"/>
      <point x="215" y="1058" type="curve" smooth="yes"/>
      <point x="215" y="1073"/>
      <point x="216" y="1087"/>
      <point x="218" y="1103" type="curve" smooth="yes"/>
      <point x="247" y="1342"/>
      <point x="460" y="1483"/>
      <point x="720" y="1483" type="curve" smooth="yes"/>
      <point x="976" y="1483"/>
      <point x="1137" y="1360"/>
      <point x="1137" y="1151" type="curve" smooth="yes"/>
      <point x="1137" y="952"/>
      <point x="1019" y="828"/>
    </contour>
    <contour>
      <point x="562" y="169" type="curve" smooth="yes"/>
      <point x="716" y="169"/>
      <point x="832" y="242"/>
      <point x="851" y="397" type="curve" smooth="yes"/>
      <point x="852" y="406"/>
      <point x="853" y="415"/>
      <point x="853" y="424" type="curve" smooth="yes"/>
      <point x="853" y="542"/>
      <point x="757" y="644"/>
      <point x="628" y="676" type="curve"/>
      <point x="466" y="641"/>
      <point x="329" y="528"/>
      <point x="329" y="360" type="curve" smooth="yes"/>
      <point x="329" y="236"/>
      <point x="420" y="169"/>
    </contour>
    <contour>
      <point x="441" y="1071" type="curve" smooth="yes"/>
      <point x="441" y="964"/>
      <point x="517" y="884"/>
      <point x="645" y="852" type="curve"/>
      <point x="792" y="890"/>
      <point x="892" y="980"/>
      <point x="908" y="1107" type="curve" smooth="yes"/>
      <point x="909" y="1115"/>
      <point x="909" y="1122"/>
      <point x="909" y="1129" type="curve" smooth="yes"/>
      <point x="909" y="1234"/>
      <point x="816" y="1292"/>
      <point x="698" y="1292" type="curve" smooth="yes"/>
      <point x="563" y="1292"/>
      <point x="441" y="1221"/>
    </contour>
  </outline>
</glyph>
<glyph name="equal" format="1">
  <advance width="1407"/>
  <unicode hex="003D"/>
  <outline>
    <contour>
      <point x="163" y="273" type="line"/>
      <point x="186" y="455" type="line"/>
      <point x="1194" y="455" type="line"/>
      <point x="1172" y="273" type="line"/>
    </contour>
    <contour>
      <point x="213" y="673" type="line"/>
      <point x="235" y="856" type="line"/>
      <point x="1242" y="856" type="line"/>
      <point x="1219" y="673" type="line"/>
    </contour>
  </outline>
</glyph>
<glyph name="greater" format="1">
  <advance width="1356"/>
  <unicode hex="003E"/>
  <outline>
    <contour>
      <point x="150" y="51" type="line"/>
      <point x="176" y="260" type="line"/>
      <point x="925" y="569" type="line"/>
      <point x="259" y="899" type="line"/>
      <point x="284" y="1105" type="line"/>
      <point x="1230" y="616" type="line"/>
      <point x="1215" y="502" type="line"/>
    </contour>
  </outline>
</glyph>
<glyph name="A" format="1">
  <advance width="1434"/>
  <unicode hex="0041"/>
  <outline>
    <contour>
      <point x="809" y="1456" type="move" name="top"/>
    </contour>
    <contour>
      <point x="-71" y="0" type="line"/>
      <point x="686" y="1456" type="line"/>
      <point x="922" y="1456" type="line"/>
      <point x="1328" y="0" type="line"/>
      <point x="1071" y="0" type="line"/>
      <point x="969" y="373" type="line"/>
      <point x="369" y="373" type="line"/>
      <point x="180" y="0" type="line"/>
    </contour>
    <contour>
      <point x="467" y="576" type="curve"/>
      <point x="913" y="576" type="line"/>
      <point x="866" y="785"/>
      <point x="818" y="992"/>
      <point x="769" y="1199" type="curve"/>
      <point x="669" y="991"/>
      <point x="568" y="783"/>
    </contour>
  </outline>
</glyph>
<glyph name="G" format="1">
  <advance width="1534"/>
  <unicode hex="0047"/>
  <outline>
    <contour>
      <point x="923" y="1456" type="move" name="top"/>
    </contour>
    <contour>
      <point x="757" y="-23" type="curve" smooth="yes"/>
      <point x="318" y="-23"/>
      <point x="96" y="213"/>
      <point x="96" y="579" type="curve" smooth="yes"/>
      <point x="96" y="619"/>
      <point x="99" y="661"/>
      <point x="104" y="704" type="curve" smooth="yes"/>
      <point x="157" y="1138"/>
      <point x="492" y="1483"/>
      <point x="963" y="1483" type="curve" smooth="yes"/>
      <point x="1219" y="1483"/>
      <point x="1348" y="1404"/>
      <point x="1429" y="1338" type="curve"/>
      <point x="1317" y="1176" type="line"/>
      <point x="1240" y="1235"/>
      <point x="1127" y="1286"/>
      <point x="942" y="1286" type="curve" smooth="yes"/>
      <point x="604" y="1286"/>
      <point x="382" y="1021"/>
      <point x="344" y="715" type="curve" smooth="yes"/>
      <point x="340" y="680"/>
      <point x="338" y="647"/>
      <point x="338" y="615" type="curve" smooth="yes"/>
      <point x="338" y="351"/>
      <point x="481" y="174"/>
      <point x="791" y="174" type="curve" smooth="yes"/>
      <point x="882" y="174"/>
      <point x="983" y="188"/>
      <point x="1071" y="216" type="curve"/>
      <point x="1116" y="586" type="line"/>
      <point x="766" y="586" type="line"/>
      <point x="791" y="783" type="line"/>
      <point x="1373" y="783" type="line"/>
      <point x="1287" y="86" type="line"/>
      <point x="1101" y="6"/>
      <point x="925" y="-23"/>
    </contour>
  </outline>
</glyph>
<glyph name="H" format="1">
  <advance width="1564"/>
  <unicode hex="0048"/>
  <outline>
    <contour>
      <point x="866" y="1456" type="move" name="top"/>
    </contour>
    <contour>
      <point x="105" y="0" type="line"/>
      <point x="283" y="1456" type="line"/>
      <point x="513" y="1456" type="line"/>
      <point x="438" y="845" type="line"/>
      <point x="1155" y="845" type="line"/>
      <point x="1230" y="1456" type="line"/>
      <point x="1460" y="1456" type="line"/>
      <point x="1282" y="0" type="line"/>
      <point x="1055" y="0" type="line"/>
      <point x="1134" y="649" type="line"/>
      <point x="417" y="649" type="line"/>
      <point x="338" y="0" type="line"/>
    </contour>
  </outline>
</glyph>
<glyph name="J" format="1">
  <advance width="903"/>
  <unicode hex="004A"/>
  <outline>
    <contour>
      <point x="716" y="1456" type="move" name="top"/>
    </contour>
    <contour>
      <point x="219" y="-331" type="curve" smooth="yes"/>
      <point x="126" y="-331"/>
      <point x="26" y="-308"/>
      <point x="-66" y="-273" type="curve"/>
      <point x="-7" y="-96" type="line"/>
      <point x="68" y="-120"/>
      <point x="140" y="-136"/>
      <point x="205" y="-136" type="curve" smooth="yes"/>
      <point x="352" y="-136"/>
      <point x="408" y="-43"/>
      <point x="427" y="114" type="curve" smooth="yes"/>
      <point x="592" y="1456" type="line"/>
      <point x="822" y="1456" type="line"/>
      <point x="658" y="120" type="line" smooth="yes"/>
      <point x="622" y="-176"/>
      <point x="463" y="-331"/>
    </contour>
  </outline>
</glyph>
<glyph name="M" format="1">
  <advance width="1961"/>
  <unicode hex="004D"/>
  <outline>
    <contour>
      <point x="1074" y="1456" type="move" name="top"/>
    </contour>
    <contour>
      <point x="105" y="0" type="line"/>
      <point x="283" y="1456" type="line"/>
      <point x="557" y="1456" type="line"/>
      <point x="681" y="1069"/>
      <point x="806" y="683"/>
      <point x="930" y="296" type="curve"/>
      <point x="1147" y="684"/>
      <point x="1366" y="1069"/>
      <point x="1584" y="1456" type="curve"/>
      <point x="1856" y="1456" type="line"/>
      <point x="1678" y="0" type="line"/>
      <point x="1462" y="0" type="line"/>
      <point x="1594" y="1080" type="line"/>
      <point x="1385" y="723"/>
      <point x="1183" y="360"/>
      <point x="977" y="0" type="curve"/>
      <point x="808" y="0" type="line"/>
      <point x="691" y="358"/>
      <point x="575" y="716"/>
      <point x="458" y="1073" type="curve"/>
      <point x="326" y="0" type="line"/>
    </contour>
  </outline>
</glyph>
<glyph name="N" format="1">
  <advance width="1616"/>
  <unicode hex="004E"/>
  <outline>
    <contour>
      <point x="912" y="1456" type="move" name="top"/>
    </contour>
    <contour>
      <point x="105" y="0" type="line"/>
      <point x="283" y="1456" type="line"/>
      <point x="528" y="1456" type="line"/>
      <point x="737" y="1081"/>
      <point x="951" y="711"/>
      <point x="1155" y="332" type="curve"/>
      <point x="1293" y="1456" type="line"/>
      <point x="1511" y="1456" type="line"/>
      <point x="1333" y="0" type="line"/>
      <point x="1087" y="0" type="line"/>
      <point x="877" y="375"/>
      <point x="659" y="741"/>
      <point x="455" y="1122" type="curve"/>
      <point x="318" y="0" type="line"/>
    </contour>
  </outline>
</glyph>
<glyph name="Q" format="1">
  <advance width="1653"/>
  <unicode hex="0051"/>
  <outline>
    <contour>
      <point x="1129" y="-439" type="line"/>
      <point x="1129" y="-439"/>
      <point x="958" y="-237"/>
      <point x="857" y="-16" type="curve"/>
      <point x="819" y="-21"/>
      <point x="779" y="-23"/>
      <point x="738" y="-23" type="curve" smooth="yes"/>
      <point x="329" y="-23"/>
      <point x="98" y="218"/>
      <point x="98" y="603" type="curve" smooth="yes"/>
      <point x="98" y="645"/>
      <point x="101" y="688"/>
      <point x="106" y="733" type="curve" smooth="yes"/>
      <point x="161" y="1177"/>
      <point x="468" y="1483"/>
      <point x="925" y="1483" type="curve" smooth="yes"/>
      <point x="1323" y="1483"/>
      <point x="1555" y="1234"/>
      <point x="1555" y="857" type="curve" smooth="yes"/>
      <point x="1555" y="817"/>
      <point x="1552" y="776"/>
      <point x="1547" y="733" type="curve" smooth="yes"/>
      <point x="1506" y="395"/>
      <point x="1332" y="144"/>
      <point x="1062" y="36" type="curve"/>
      <point x="1140" y="-127"/>
      <point x="1300" y="-329"/>
      <point x="1300" y="-329" type="curve"/>
    </contour>
    <contour>
      <point x="346" y="611" type="curve" smooth="yes"/>
      <point x="346" y="337"/>
      <point x="481" y="174"/>
      <point x="758" y="174" type="curve" smooth="yes"/>
      <point x="1075" y="174"/>
      <point x="1255" y="388"/>
      <point x="1297" y="733" type="curve" smooth="yes"/>
      <point x="1302" y="773"/>
      <point x="1305" y="812"/>
      <point x="1305" y="849" type="curve" smooth="yes"/>
      <point x="1305" y="1115"/>
      <point x="1174" y="1286"/>
      <point x="898" y="1286" type="curve" smooth="yes"/>
      <point x="552" y="1286"/>
      <point x="346" y="1008"/>
    </contour>
  </outline>
</glyph>
<glyph name="R" format="1">
  <advance width="1372"/>
  <unicode hex="0052"/>
  <outline>
    <contour>
      <point x="756" y="1456" type="move" name="top"/>
    </contour>
    <contour>
      <point x="105" y="0" type="line"/>
      <point x="283" y="1456" type="line"/>
      <point x="778" y="1456" type="line" smooth="yes"/>
      <point x="1038" y="1456"/>
      <point x="1242" y="1399"/>
      <point x="1242" y="1136" type="curve" smooth="yes"/>
      <point x="1242" y="1113"/>
      <point x="1240" y="1088"/>
      <point x="1237" y="1062" type="curve" smooth="yes"/>
      <point x="1217" y="900"/>
      <point x="1117" y="762"/>
      <point x="909" y="715" type="curve"/>
      <point x="997" y="674"/>
      <point x="1049" y="587"/>
      <point x="1085" y="459" type="curve" smooth="yes"/>
      <point x="1214" y="0" type="line"/>
      <point x="965" y="0" type="line"/>
      <point x="853" y="433" type="line" smooth="yes"/>
      <point x="814" y="586"/>
      <point x="774" y="630"/>
      <point x="629" y="630" type="curve" smooth="yes"/>
      <point x="411" y="630" type="line"/>
      <point x="335" y="0" type="line"/>
    </contour>
    <contour>
      <point x="995" y="1098" type="curve" smooth="yes"/>
      <point x="995" y="1228"/>
      <point x="915" y="1260"/>
      <point x="756" y="1260" type="curve" smooth="yes"/>
      <point x="486" y="1260" type="line"/>
      <point x="433" y="825" type="line"/>
      <point x="680" y="825" type="line" smooth="yes"/>
      <point x="853" y="825"/>
      <point x="995" y="887"/>
    </contour>
  </outline>
</glyph>
<glyph name="U" format="1">
  <advance width="1503"/>
  <unicode hex="0055"/>
  <outline>
    <contour>
      <point x="840" y="1456" type="move" name="top"/>
    </contour>
    <contour>
      <point x="660" y="-23" type="curve"/>
      <point x="261" y="-23"/>
      <point x="141" y="180"/>
      <point x="141" y="447" type="curve" smooth="yes"/>
      <point x="141" y="491"/>
      <point x="144" y="537"/>
      <point x="150" y="583" type="curve" smooth="yes"/>
      <point x="257" y="1456" type="line"/>
      <point x="487" y="1456" type="line"/>
      <point x="379" y="576" type="line" smooth="yes"/>
      <point x="375" y="541"/>
      <point x="373" y="510"/>
      <point x="373" y="480" type="curve" smooth="yes"/>
      <point x="373" y="257"/>
      <point x="493" y="174"/>
      <point x="685" y="174" type="curve" smooth="yes"/>
      <point x="899" y="174"/>
      <point x="1053" y="279"/>
      <point x="1090" y="575" type="curve" smooth="yes"/>
      <point x="1198" y="1456" type="line"/>
      <point x="1428" y="1456" type="line"/>
      <point x="1321" y="584" type="line" smooth="yes"/>
      <point x="1279" y="249"/>
      <point x="1117" y="-23"/>
    </contour>
  </outline>
</glyph>
<glyph name="Y" format="1">
  <advance width="1258"/>
  <unicode hex="0059"/>
  <outline>
    <contour>
      <point x="742" y="1456" type="move" name="top"/>
    </contour>
    <contour>
      <point x="420" y="0" type="line"/>
      <point x="490" y="567" type="line"/>
      <point x="87" y="1456" type="line"/>
      <point x="346" y="1456" type="line"/>
      <point x="634" y="771" type="line"/>
      <point x="1089" y="1456" type="line"/>
      <point x="1353" y="1456" type="line"/>
      <point x="720" y="570" type="line"/>
      <point x="650" y="0" type="line"/>
    </contour>
  </outline>
</glyph>
<glyph name="Z" format="1">
  <advance width="1192"/>
  <unicode hex="005A"/>
  <outline>
    <contour>
      <point x="709" y="1456" type="move" name="top"/>
    </contour>
    <contour>
      <point x="-8" y="0" type="line"/>
      <point x="7" y="124" type="line"/>
      <point x="853" y="1260" type="line"/>
      <point x="174" y="1260" type="line"/>
      <point x="198" y="1456" type="line"/>
      <point x="1192" y="1456" type="line"/>
      <point x="1177" y="1336" type="line"/>
      <point x="324" y="196" type="line"/>
      <point x="1035" y="196" type="line"/>
      <point x="1011" y="0" type="line"/>
    </contour>
  </outline>
</glyph>
<glyph name="bracketleft" format="1">
  <advance width="636"/>
  <unicode hex="005B"/>
  <outline>
    <contour>
      <point x="50" y="-184" type="line"/>
      <point x="255" y="1490" type="line"/>
      <point x="672" y="1490" type="line"/>
      <point x="651" y="1320" type="line"/>
      <point x="458" y="1320" type="line"/>
      <point x="294" y="-14" type="line"/>
      <point x="489" y="-14" type="line"/>
      <point x="468" y="-184" type="line"/>
    </contour>
  </outline>
</glyph>
<glyph name="asciicircum" format="1">
  <advance width="1585"/>
  <unicode hex="005E"/>
  <outline>
    <contour>
      <point x="161" y="544" type="line"/>
      <point x="773" y="1456" type="line"/>
      <point x="917" y="1456" type="line"/>
      <point x="1313" y="544" type="line"/>
      <point x="1090" y="544" type="line"/>
      <point x="812" y="1205" type="line"/>
      <point x="388" y="544" type="line"/>
    </contour>
  </outline>
</glyph>
<glyph name="c" format="1">
  <advance width="1073"/>
  <unicode hex="0063"/>
  <outline>
    <contour>
      <point x="689" y="1026" type="move" name="top"/>
    </contour>
    <contour>
      <point x="332" y="449" type="curve" smooth="yes"/>
      <point x="332" y="272"/>
      <point x="434" y="159"/>
      <point x="613" y="159" type="curve" smooth="yes"/>
      <point x="742" y="159"/>
      <point x="837" y="218"/>
      <point x="890" y="254" type="curve"/>
      <point x="939" y="90" type="line"/>
      <point x="825" y="15"/>
      <point x="710" y="-23"/>
      <point x="568" y="-23" type="curve" smooth="yes"/>
      <point x="265" y="-23"/>
      <point x="99" y="176"/>
      <point x="99" y="433" type="curve" smooth="yes"/>
      <point x="99" y="458"/>
      <point x="101" y="484"/>
      <point x="104" y="510" type="curve" smooth="yes"/>
      <point x="142" y="823"/>
      <point x="376" y="1052"/>
      <point x="701" y="1052" type="curve" smooth="yes"/>
      <point x="852" y="1052"/>
      <point x="968" y="1007"/>
      <point x="1041" y="920" type="curve"/>
      <point x="944" y="774" type="line"/>
      <point x="890" y="827"/>
      <point x="809" y="870"/>
      <point x="699" y="870" type="curve" smooth="yes"/>
      <point x="492" y="870"/>
      <point x="332" y="712"/>
    </contour>
  </outline>
</glyph>
<glyph name="d" format="1">
  <advance width="1267"/>
  <unicode hex="0064"/>
  <outline>
    <contour>
      <point x="961" y="1026" type="move" name="caron.alt"/>
    </contour>
    <contour>
      <point x="597" y="1026" type="move" name="top"/>
    </contour>
    <contour>
      <point x="483" y="-23" type="curve" smooth="yes"/>
      <point x="243" y="-23"/>
      <point x="72" y="146"/>
      <point x="72" y="420" type="curve" smooth="yes"/>
      <point x="72" y="448"/>
      <point x="74" y="477"/>
      <point x="78" y="508" type="curve" smooth="yes"/>
      <point x="115" y="809"/>
      <point x="314" y="1052"/>
      <point x="630" y="1052" type="curve" smooth="yes"/>
      <point x="792" y="1052"/>
      <point x="884" y="964"/>
      <point x="909" y="902" type="curve"/>
      <point x="979" y="1469" type="line"/>
      <point x="1202" y="1469" type="line"/>
      <point x="1055" y="270" type="line" smooth="yes"/>
      <point x="1050" y="232"/>
      <point x="1047" y="192"/>
      <point x="1030" y="0" type="curve"/>
      <point x="802" y="0" type="line"/>
      <point x="817" y="147" type="line"/>
      <point x="780" y="78"/>
      <point x="670" y="-23"/>
    </contour>
    <contour>
      <point x="872" y="589" type="curve" smooth="yes"/>
      <point x="872" y="751"/>
      <point x="797" y="871"/>
      <point x="634" y="871" type="curve" smooth="yes"/>
      <point x="431" y="871"/>
      <point x="308" y="681"/>
      <point x="308" y="442" type="curve" smooth="yes"/>
      <point x="308" y="280"/>
      <point x="379" y="159"/>
      <point x="545" y="159" type="curve" smooth="yes"/>
      <point x="754" y="159"/>
      <point x="872" y="351"/>
    </contour>
  </outline>
</glyph>
<glyph name="e" format="1">
  <advance width="1183"/>
  <unicode hex="0065"/>
  <outline>
    <contour>
      <point x="695" y="1026" type="move" name="top"/>
    </contour>
    <contour>
      <point x="1064" y="477" type="curve"/>
      <point x="334" y="477" type="line"/>
      <point x="333" y="461"/>
      <point x="332" y="446"/>
      <point x="332" y="432" type="curve" smooth="yes"/>
      <point x="332" y="245"/>
      <point x="450" y="159"/>
      <point x="623" y="159" type="curve" smooth="yes"/>
      <point x="738" y="159"/>
      <point x="850" y="195"/>
      <point x="959" y="271" type="curve"/>
      <point x="1002" y="107" type="line"/>
      <point x="874" y="19"/>
      <point x="740" y="-23"/>
      <point x="584" y="-23" type="curve" smooth="yes"/>
      <point x="275" y="-23"/>
      <point x="99" y="157"/>
      <point x="99" y="428" type="curve" smooth="yes"/>
      <point x="99" y="455"/>
      <point x="100" y="483"/>
      <point x="104" y="512" type="curve" smooth="yes"/>
      <point x="140" y="809"/>
      <point x="366" y="1052"/>
      <point x="686" y="1052" type="curve" smooth="yes"/>
      <point x="964" y="1052"/>
      <point x="1081" y="873"/>
      <point x="1081" y="628" type="curve" smooth="yes"/>
      <point x="1081" y="574"/>
      <point x="1079" y="525"/>
    </contour>
    <contour>
      <point x="356" y="628" type="curve"/>
      <point x="887" y="628" type="line"/>
      <point x="887" y="634" type="line" smooth="yes"/>
      <point x="887" y="794"/>
      <point x="806" y="877"/>
      <point x="675" y="877" type="curve" smooth="yes"/>
      <point x="524" y="877"/>
      <point x="405" y="783"/>
    </contour>
  </outline>
</glyph>
<glyph name="f" format="1">
  <advance width="784"/>
  <unicode hex="0066"/>
  <outline>
    <contour>
      <point x="466" y="1456" type="move" name="top"/>
    </contour>
    <contour>
      <point x="166" y="0" type="line"/>
      <point x="273" y="876" type="line"/>
      <point x="86" y="876" type="line"/>
      <point x="105" y="1026" type="line"/>
      <point x="292" y="1026" type="line"/>
      <point x="299" y="1080" type="line"/>
      <point x="333" y="1360"/>
      <point x="385" y="1483"/>
      <point x="766" y="1483" type="curve" smooth="yes"/>
      <point x="817" y="1483" type="line"/>
      <point x="789" y="1310" type="line"/>
      <point x="569" y="1310"/>
      <point x="546" y="1278"/>
      <point x="523" y="1089" type="curve" smooth="yes"/>
      <point x="515" y="1026" type="line"/>
      <point x="752" y="1026" type="line"/>
      <point x="733" y="876" type="line"/>
      <point x="497" y="876" type="line"/>
      <point x="389" y="0" type="line"/>
    </contour>
  </outline>
</glyph>
<glyph name="h" format="1">
  <advance width="1227"/>
  <unicode hex="0068"/>
  <outline>
    <contour>
      <point x="775" y="1026" type="move" name="top"/>
    </contour>
    <contour>
      <point x="62" y="0" type="line"/>
      <point x="242" y="1469" type="line"/>
      <point x="466" y="1469" type="line"/>
      <point x="394" y="883" type="line"/>
      <point x="464" y="987"/>
      <point x="618" y="1052"/>
      <point x="738" y="1052" type="curve" smooth="yes"/>
      <point x="1002" y="1052"/>
      <point x="1073" y="869"/>
      <point x="1073" y="687" type="curve" smooth="yes"/>
      <point x="1073" y="654"/>
      <point x="1071" y="621"/>
      <point x="1067" y="589" type="curve" smooth="yes"/>
      <point x="995" y="0" type="line"/>
      <point x="771" y="0" type="line"/>
      <point x="843" y="593" type="line" smooth="yes"/>
      <point x="847" y="624"/>
      <point x="849" y="653"/>
      <point x="849" y="678" type="curve" smooth="yes"/>
      <point x="849" y="815"/>
      <point x="792" y="871"/>
      <point x="681" y="871" type="curve" smooth="yes"/>
      <point x="535" y="871"/>
      <point x="378" y="753"/>
      <point x="362" y="620" type="curve" smooth="yes"/>
      <point x="286" y="0" type="line"/>
    </contour>
  </outline>
</glyph>
<glyph name="i" format="1">
  <advance width="596"/>
  <unicode hex="0069"/>
  <outline>
    <contour>
      <point x="135" y="0" type="line"/>
      <point x="261" y="1026" type="line"/>
      <point x="480" y="1026" type="line"/>
      <point x="354" y="0" type="line"/>
    </contour>
    <contour>
      <point x="290" y="1256" type="line"/>
      <point x="314" y="1456" type="line"/>
      <point x="532" y="1456" type="line"/>
      <point x="508" y="1256" type="line"/>
    </contour>
  </outline>
</glyph>
<glyph name="k" format="1">
  <advance width="1106"/>
  <unicode hex="006B"/>
  <outline>
    <contour>
      <point x="718" y="1026" type="move" name="top"/>
    </contour>
    <contour>
      <point x="66" y="0" type="line"/>
      <point x="246" y="1469" type="line"/>
      <point x="470" y="1469" type="line"/>
      <point x="364" y="601" type="line"/>
      <point x="814" y="1026" type="line"/>
      <point x="1122" y="1026" type="line"/>
      <point x="561" y="534" type="line"/>
      <point x="1030" y="0" type="line"/>
      <point x="733" y="0" type="line"/>
      <point x="346" y="460" type="line"/>
      <point x="290" y="0" type="line"/>
    </contour>
  </outline>
</glyph>
<glyph name="m" format="1">
  <advance width="1853"/>
  <unicode hex="006D"/>
  <outline>
    <contour>
      <point x="1047" y="1026" type="move" name="top"/>
    </contour>
    <contour>
      <point x="101" y="0" type="line"/>
      <point x="189" y="714" type="line" smooth="yes"/>
      <point x="207" y="864"/>
      <point x="207" y="953"/>
      <point x="212" y="1026" type="curve"/>
      <point x="447" y="1026" type="line"/>
      <point x="429" y="880" type="line"/>
      <point x="493" y="983"/>
      <point x="626" y="1052"/>
      <point x="754" y="1052" type="curve" smooth="yes"/>
      <point x="886" y="1052"/>
      <point x="996" y="983"/>
      <point x="1036" y="850" type="curve"/>
      <point x="1125" y="968"/>
      <point x="1252" y="1052"/>
      <point x="1410" y="1052" type="curve" smooth="yes"/>
      <point x="1626" y="1052"/>
      <point x="1729" y="925"/>
      <point x="1729" y="719" type="curve" smooth="yes"/>
      <point x="1729" y="691"/>
      <point x="1727" y="660"/>
      <point x="1723" y="629" type="curve" smooth="yes"/>
      <point x="1645" y="0" type="line"/>
      <point x="1421" y="0" type="line"/>
      <point x="1497" y="612" type="line" smooth="yes"/>
      <point x="1500" y="636"/>
      <point x="1501" y="659"/>
      <point x="1501" y="682" type="curve" smooth="yes"/>
      <point x="1501" y="787"/>
      <point x="1467" y="871"/>
      <point x="1366" y="871" type="curve" smooth="yes"/>
      <point x="1214" y="871"/>
      <point x="1077" y="730"/>
      <point x="1059" y="583" type="curve" smooth="yes"/>
      <point x="987" y="0" type="line"/>
      <point x="763" y="0" type="line"/>
      <point x="841" y="629" type="line" smooth="yes"/>
      <point x="843" y="648"/>
      <point x="845" y="669"/>
      <point x="845" y="688" type="curve" smooth="yes"/>
      <point x="845" y="783"/>
      <point x="811" y="871"/>
      <point x="696" y="871" type="curve" smooth="yes"/>
      <point x="544" y="871"/>
      <point x="418" y="747"/>
      <point x="402" y="617" type="curve" smooth="yes"/>
      <point x="325" y="0" type="line"/>
    </contour>
  </outline>
</glyph>
<glyph name="o" format="1">
  <advance width="1274"/>
  <unicode hex="006F"/>
  <outline>
    <contour>
      <point x="706" y="1026" type="move" name="top"/>
    </contour>
    <contour>
      <point x="940" y="583" type="curve" smooth="yes"/>
      <point x="940" y="750"/>
      <point x="860" y="871"/>
      <point x="682" y="871" type="curve" smooth="yes"/>
      <point x="462" y="871"/>
      <point x="334" y="685"/>
      <point x="334" y="444" type="curve" smooth="yes"/>
      <point x="334" y="281"/>
      <point x="411" y="159"/>
      <point x="595" y="159" type="curve" smooth="yes"/>
      <point x="819" y="159"/>
      <point x="940" y="347"/>
    </contour>
    <contour>
      <point x="574" y="-23" type="curve" smooth="yes"/>
      <point x="254" y="-23"/>
      <point x="99" y="173"/>
      <point x="99" y="430" type="curve" smooth="yes"/>
      <point x="99" y="457"/>
      <point x="101" y="485"/>
      <point x="104" y="513" type="curve" smooth="yes"/>
      <point x="141" y="817"/>
      <point x="357" y="1052"/>
      <point x="707" y="1052" type="curve" smooth="yes"/>
      <point x="1026" y="1052"/>
      <point x="1176" y="863"/>
      <point x="1176" y="602" type="curve" smooth="yes"/>
      <point x="1176" y="573"/>
      <point x="1174" y="542"/>
      <point x="1170" y="511" type="curve" smooth="yes"/>
      <point x="1133" y="218"/>
      <point x="923" y="-23"/>
    </contour>
  </outline>
</glyph>
<glyph name="p" format="1">
  <advance width="1267"/>
  <unicode hex="0070"/>
  <outline>
    <contour>
      <point x="767" y="1026" type="move" name="top"/>
    </contour>
    <contour>
      <point x="77" y="-405" type="line"/>
      <point x="213" y="703" type="line" smooth="yes"/>
      <point x="224" y="797"/>
      <point x="231" y="920"/>
      <point x="237" y="1026" type="curve"/>
      <point x="474" y="1026" type="line"/>
      <point x="454" y="867" type="line"/>
      <point x="488" y="948"/>
      <point x="628" y="1052"/>
      <point x="801" y="1052" type="curve" smooth="yes"/>
      <point x="1053" y="1052"/>
      <point x="1193" y="862"/>
      <point x="1193" y="612" type="curve" smooth="yes"/>
      <point x="1193" y="584"/>
      <point x="1192" y="555"/>
      <point x="1188" y="525" type="curve" smooth="yes"/>
      <point x="1153" y="232"/>
      <point x="949" y="-23"/>
      <point x="660" y="-23" type="curve" smooth="yes"/>
      <point x="487" y="-23"/>
      <point x="378" y="81"/>
      <point x="366" y="149" type="curve"/>
      <point x="298" y="-405" type="line"/>
    </contour>
    <contour>
      <point x="959" y="592" type="curve" smooth="yes"/>
      <point x="959" y="755"/>
      <point x="885" y="871"/>
      <point x="724" y="871" type="curve" smooth="yes"/>
      <point x="519" y="871"/>
      <point x="396" y="678"/>
      <point x="396" y="437" type="curve" smooth="yes"/>
      <point x="396" y="278"/>
      <point x="470" y="159"/>
      <point x="636" y="159" type="curve" smooth="yes"/>
      <point x="845" y="159"/>
      <point x="959" y="356"/>
    </contour>
  </outline>
</glyph>
<glyph name="q" format="1">
  <advance width="1256"/>
  <unicode hex="0071"/>
  <outline>
    <contour>
      <point x="791" y="-405" type="line"/>
      <point x="854" y="108" type="line"/>
      <point x="783" y="26"/>
      <point x="660" y="-23"/>
      <point x="540" y="-23" type="curve" smooth="yes"/>
      <point x="259" y="-23"/>
      <point x="121" y="180"/>
      <point x="121" y="432" type="curve" smooth="yes"/>
      <point x="121" y="462"/>
      <point x="123" y="491"/>
      <point x="127" y="522" type="curve" smooth="yes"/>
      <point x="163" y="815"/>
      <point x="368" y="1052"/>
      <point x="676" y="1052" type="curve" smooth="yes"/>
      <point x="784" y="1052"/>
      <point x="888" y="1001"/>
      <point x="953" y="904" type="curve"/>
      <point x="968" y="1026" type="line"/>
      <point x="1197" y="1026" type="line"/>
      <point x="1182" y="950"/>
      <point x="1163" y="826"/>
      <point x="1154" y="754" type="curve" smooth="yes"/>
      <point x="1012" y="-405" type="line"/>
    </contour>
    <contour>
      <point x="919" y="592" type="curve" smooth="yes"/>
      <point x="919" y="754"/>
      <point x="843" y="871"/>
      <point x="681" y="871" type="curve" smooth="yes"/>
      <point x="475" y="871"/>
      <point x="356" y="677"/>
      <point x="356" y="437" type="curve" smooth="yes"/>
      <point x="356" y="277"/>
      <point x="427" y="159"/>
      <point x="592" y="159" type="curve" smooth="yes"/>
      <point x="801" y="159"/>
      <point x="919" y="354"/>
    </contour>
  </outline>
</glyph>
<glyph name="r" format="1">
  <advance width="798"/>
  <unicode hex="0072"/>
  <outline>
    <contour>
      <point x="553" y="1026" type="move" name="top"/>
    </contour>
    <contour>
      <point x="103" y="0" type="line"/>
      <point x="198" y="770" type="line" smooth="yes"/>
      <point x="210" y="864"/>
      <point x="213" y="1026"/>
      <point x="213" y="1026" type="curve"/>
      <point x="451" y="1026" type="line"/>
      <point x="433" y="881" type="line"/>
      <point x="515" y="987"/>
      <point x="607" y="1052"/>
      <point x="717" y="1052" type="curve" smooth="yes"/>
      <point x="750" y="1052"/>
      <point x="784" y="1047"/>
      <point x="819" y="1037" type="curve"/>
      <point x="795" y="840" type="line"/>
      <point x="758" y="853"/>
      <point x="717" y="860"/>
      <point x="677" y="860" type="curve" smooth="yes"/>
      <point x="538" y="860"/>
      <point x="422" y="764"/>
      <point x="399" y="577" type="curve" smooth="yes"/>
      <point x="328" y="0" type="line"/>
    </contour>
  </outline>
</glyph>
<glyph name="t" format="1">
  <advance width="820"/>
  <unicode hex="0074"/>
  <outline>
    <contour>
      <point x="336" y="1316" type="move" name="caron.alt"/>
    </contour>
    <contour>
      <point x="429" y="1320" type="move" name="top"/>
    </contour>
    <contour>
      <point x="652" y="1" type="line"/>
      <point x="556" y="1" type="line" smooth="yes"/>
      <point x="313" y="1"/>
      <point x="183" y="46"/>
      <point x="183" y="272" type="curve" smooth="yes"/>
      <point x="183" y="301"/>
      <point x="185" y="333"/>
      <point x="189" y="368" type="curve" smooth="yes"/>
      <point x="252" y="876" type="line"/>
      <point x="48" y="876" type="line"/>
      <point x="67" y="1026" type="line"/>
      <point x="277" y="1026" type="line"/>
      <point x="308" y="1276" type="line"/>
      <point x="532" y="1341" type="line"/>
      <point x="494" y="1026" type="line"/>
      <point x="774" y="1026" type="line"/>
      <point x="755" y="876" type="line"/>
      <point x="475" y="876" type="line"/>
      <point x="412" y="355" type="line" smooth="yes"/>
      <point x="409" y="334"/>
      <point x="408" y="315"/>
      <point x="408" y="298" type="curve" smooth="yes"/>
      <point x="408" y="187"/>
      <point x="473" y="173"/>
      <point x="673" y="173" type="curve"/>
    </contour>
  </outline>
</glyph>
<glyph name="v" format="1">
  <advance width="1102"/>
  <unicode hex="0076"/>
  <outline>
    <contour>
      <point x="384" y="0" type="line"/>
      <point x="78" y="1026" type="line"/>
      <point x="326" y="1026" type="line"/>
      <point x="527" y="243" type="line"/>
      <point x="650" y="508"/>
      <point x="781" y="765"/>
      <point x="908" y="1026" type="curve"/>
      <point x="1149" y="1026" type="line"/>
      <point x="591" y="0" type="line"/>
    </contour>
  </outline>
</glyph>
<glyph name="w" format="1">
  <advance width="1669"/>
  <unicode hex="0077"/>
  <outline>
    <contour>
      <point x="921" y="1026" type="move" name="top"/>
    </contour>
    <contour>
      <point x="319" y="0" type="line"/>
      <point x="85" y="1026" type="line"/>
      <point x="323" y="1026" type="line"/>
      <point x="371" y="774"/>
      <point x="419" y="522"/>
      <point x="468" y="271" type="curve"/>
      <point x="583" y="523"/>
      <point x="699" y="774"/>
      <point x="815" y="1026" type="curve"/>
      <point x="1017" y="1026" type="line"/>
      <point x="1067" y="774"/>
      <point x="1118" y="522"/>
      <point x="1167" y="269" type="curve"/>
      <point x="1279" y="520"/>
      <point x="1388" y="774"/>
      <point x="1499" y="1026" type="curve"/>
      <point x="1710" y="1026" type="line"/>
      <point x="1213" y="0" type="line"/>
      <point x="1020" y="0" type="line"/>
      <point x="968" y="246"/>
      <point x="915" y="490"/>
      <point x="865" y="738" type="curve"/>
      <point x="747" y="492"/>
      <point x="630" y="246"/>
      <point x="513" y="0" type="curve"/>
    </contour>
  </outline>
</glyph>
<glyph name="braceleft" format="1">
  <advance width="857"/>
  <unicode hex="007B"/>
  <outline>
    <contour>
      <point x="610" y="1146" type="curve" smooth="yes"/>
      <point x="580" y="905" type="line"/>
      <point x="564" y="768"/>
      <point x="479" y="680"/>
      <point x="346" y="659" type="curve"/>
      <point x="461" y="636"/>
      <point x="521" y="559"/>
      <point x="521" y="445" type="curve" smooth="yes"/>
      <point x="521" y="431"/>
      <point x="520" y="415"/>
      <point x="518" y="400" type="curve" smooth="yes"/>
      <point x="489" y="162" type="line" smooth="yes"/>
      <point x="486" y="141"/>
      <point x="485" y="122"/>
      <point x="485" y="105" type="curve" smooth="yes"/>
      <point x="485" y="-6"/>
      <point x="544" y="-18"/>
      <point x="680" y="-19" type="curve"/>
      <point x="659" y="-194" type="line"/>
      <point x="355" y="-193"/>
      <point x="254" y="-117"/>
      <point x="254" y="67" type="curve" smooth="yes"/>
      <point x="254" y="94"/>
      <point x="256" y="123"/>
      <point x="260" y="154" type="curve" smooth="yes"/>
      <point x="288" y="388" type="line" smooth="yes"/>
      <point x="290" y="408"/>
      <point x="292" y="425"/>
      <point x="292" y="442" type="curve" smooth="yes"/>
      <point x="292" y="542"/>
      <point x="246" y="584"/>
      <point x="130" y="586" type="curve"/>
      <point x="148" y="735" type="line"/>
      <point x="278" y="737"/>
      <point x="337" y="792"/>
      <point x="354" y="925" type="curve"/>
      <point x="382" y="1158" type="line"/>
      <point x="413" y="1404"/>
      <point x="512" y="1514"/>
      <point x="869" y="1514" type="curve"/>
      <point x="848" y="1339" type="line"/>
      <point x="680" y="1338"/>
      <point x="629" y="1305"/>
    </contour>
  </outline>
</glyph>
<glyph name="bar" format="1">
  <advance width="607"/>
  <unicode hex="007C"/>
  <outline>
    <contour>
      <point x="75" y="-465" type="line"/>
      <point x="319" y="1518" type="line"/>
      <point x="532" y="1518" type="line"/>
      <point x="288" y="-465" type="line"/>
    </contour>
  </outline>
</glyph>
<glyph name="exclamdown" format="1">
  <advance width="648"/>
  <unicode hex="00A1"/>
  <outline>
    <contour>
      <point x="496" y="1034" type="line"/>
      <point x="466" y="783" type="line"/>
      <point x="221" y="783" type="line"/>
      <point x="252" y="1034" type="line"/>
    </contour>
    <contour>
      <point x="394" y="651" type="line"/>
      <point x="329" y="-422" type="line"/>
      <point x="64" y="-422" type="line"/>
      <point x="262" y="651" type="line"/>
    </contour>
  </outline>
</glyph>
<glyph name="cent" format="1">
  <advance width="1058"/>
  <unicode hex="00A2"/>
  <outline>
    <contour>
      <point x="507" y="-230" type="line"/>
      <point x="533" y="-22" type="line"/>
      <point x="252" y="-7"/>
      <point x="99" y="186"/>
      <point x="99" y="433" type="curve" smooth="yes"/>
      <point x="99" y="458"/>
      <point x="101" y="484"/>
      <point x="104" y="510" type="curve" smooth="yes"/>
      <point x="141" y="811"/>
      <point x="359" y="1035"/>
      <point x="665" y="1051" type="curve"/>
      <point x="689" y="1250" type="line"/>
      <point x="796" y="1250" type="line"/>
      <point x="771" y="1048" type="line"/>
      <point x="888" y="1036"/>
      <point x="980" y="993"/>
      <point x="1041" y="920" type="curve"/>
      <point x="944" y="774" type="line"/>
      <point x="899" y="819"/>
      <point x="834" y="856"/>
      <point x="749" y="867" type="curve"/>
      <point x="663" y="162" type="line"/>
      <point x="767" y="174"/>
      <point x="844" y="223"/>
      <point x="890" y="254" type="curve"/>
      <point x="939" y="90" type="line"/>
      <point x="845" y="28"/>
      <point x="751" y="-8"/>
      <point x="641" y="-19" type="curve"/>
      <point x="615" y="-230" type="line"/>
    </contour>
    <contour>
      <point x="642" y="866" type="line"/>
      <point x="466" y="841"/>
      <point x="332" y="688"/>
      <point x="332" y="449" type="curve" smooth="yes"/>
      <point x="332" y="292"/>
      <point x="412" y="185"/>
      <point x="555" y="163" type="curve"/>
    </contour>
  </outline>
</glyph>
<glyph name="brokenbar" format="1">
  <advance width="500"/>
  <unicode hex="00A6"/>
  <outline>
    <contour>
      <point x="30" y="-465" type="line"/>
      <point x="137" y="409" type="line"/>
      <point x="344" y="409" type="line"/>
      <point x="237" y="-465" type="line"/>
    </contour>
    <contour>
      <point x="159" y="597" type="line"/>
      <point x="272" y="1518" type="line"/>
      <point x="479" y="1518" type="line"/>
      <point x="366" y="597" type="line"/>
    </contour>
  </outline>
</glyph>
<glyph name="ordfeminine" format="1">
  <advance width="838"/>
  <unicode hex="00AA"/>
  <outline>
    <contour>
      <point x="297" y="737" type="curve" smooth="yes"/>
      <point x="177" y="737"/>
      <point x="79" y="801"/>
      <point x="79" y="921" type="curve" smooth="yes"/>
      <point x="79" y="930"/>
      <point x="80" y="940"/>
      <point x="81" y="950" type="curve" smooth="yes"/>
      <point x="98" y="1085"/>
      <point x="197" y="1164"/>
      <point x="380" y="1164" type="curve" smooth="yes"/>
      <point x="556" y="1164" type="line"/>
      <point x="561" y="1204" type="line" smooth="yes"/>
      <point x="562" y="1214"/>
      <point x="563" y="1224"/>
      <point x="563" y="1233" type="curve" smooth="yes"/>
      <point x="563" y="1311"/>
      <point x="517" y="1339"/>
      <point x="443" y="1339" type="curve" smooth="yes"/>
      <point x="334" y="1339"/>
      <point x="208" y="1286"/>
      <point x="208" y="1286" type="curve"/>
      <point x="172" y="1411" type="line"/>
      <point x="172" y="1411"/>
      <point x="301" y="1480"/>
      <point x="478" y="1480" type="curve" smooth="yes"/>
      <point x="623" y="1480"/>
      <point x="742" y="1421"/>
      <point x="742" y="1252" type="curve" smooth="yes"/>
      <point x="742" y="1236"/>
      <point x="741" y="1220"/>
      <point x="739" y="1202" type="curve" smooth="yes"/>
      <point x="729" y="1118"/>
      <point x="709" y="949"/>
      <point x="704" y="912" type="curve"/>
      <point x="696" y="828"/>
      <point x="697" y="804"/>
      <point x="695" y="766" type="curve"/>
      <point x="530" y="766" type="line"/>
      <point x="529" y="864" type="line"/>
      <point x="498" y="806"/>
      <point x="417" y="737"/>
    </contour>
    <contour>
      <point x="326" y="858" type="curve" smooth="yes"/>
      <point x="415" y="858"/>
      <point x="524" y="919"/>
      <point x="540" y="1045" type="curve"/>
      <point x="542" y="1063" type="line"/>
      <point x="326" y="1063"/>
      <point x="251" y="1059"/>
      <point x="238" y="952" type="curve" smooth="yes"/>
      <point x="237" y="947"/>
      <point x="237" y="943"/>
      <point x="237" y="938" type="curve" smooth="yes"/>
      <point x="237" y="887"/>
      <point x="277" y="858"/>
    </contour>
  </outline>
</glyph>
<glyph name="guillemotleft" format="1">
  <advance width="1155"/>
  <unicode hex="00AB"/>
  <outline>
    <contour>
      <point x="365" y="162" type="line"/>
      <point x="136" y="541" type="line"/>
      <point x="463" y="920" type="line"/>
      <point x="649" y="920" type="line"/>
      <point x="361" y="541" type="line"/>
      <point x="548" y="162" type="line"/>
    </contour>
    <contour>
      <point x="801" y="162" type="line"/>
      <point x="573" y="541" type="line"/>
      <point x="900" y="920" type="line"/>
      <point x="1086" y="920" type="line"/>
      <point x="798" y="541" type="line"/>
      <point x="985" y="162" type="line"/>
    </contour>
  </outline>
</glyph>
<glyph name="logicalnot" format="1">
  <advance width="1459"/>
  <unicode hex="00AC"/>
  <outline>
    <contour>
      <point x="991" y="226" type="line"/>
      <point x="1040" y="623" type="line"/>
      <point x="188" y="623" type="line"/>
      <point x="211" y="810" type="line"/>
      <point x="1272" y="810" type="line"/>
      <point x="1200" y="226" type="line"/>
    </contour>
  </outline>
</glyph>
<glyph name="softhyphen" format="1">
  <advance width="717"/>
  <unicode hex="00AD"/>
  <outline>
    <contour>
      <point x="47" y="469" type="line"/>
      <point x="68" y="641" type="line"/>
      <point x="670" y="641" type="line"/>
      <point x="649" y="469" type="line"/>
    </contour>
  </outline>
</glyph>
<glyph name="degree" format="1">
  <advance width="874"/>
  <unicode hex="00B0"/>
  <outline>
    <contour>
      <point x="611" y="1180" type="curve" smooth="yes"/>
      <point x="611" y="1267"/>
      <point x="552" y="1332"/>
      <point x="458" y="1332" type="curve" smooth="yes"/>
      <point x="353" y="1332"/>
      <point x="264" y="1245"/>
      <point x="264" y="1131" type="curve" smooth="yes"/>
      <point x="264" y="1043"/>
      <point x="322" y="978"/>
      <point x="415" y="978" type="curve" smooth="yes"/>
      <point x="522" y="978"/>
      <point x="611" y="1064"/>
    </contour>
    <contour>
      <point x="474" y="1460" type="curve" smooth="yes"/>
      <point x="634" y="1460"/>
      <point x="749" y="1345"/>
      <point x="749" y="1193" type="curve" smooth="yes"/>
      <point x="749" y="997"/>
      <point x="578" y="851"/>
      <point x="399" y="851" type="curve" smooth="yes"/>
      <point x="241" y="851"/>
      <point x="125" y="965"/>
      <point x="125" y="1117" type="curve" smooth="yes"/>
      <point x="125" y="1313"/>
      <point x="296" y="1460"/>
    </contour>
  </outline>
</glyph>
<glyph name="threesuperior" format="1">
  <advance width="1025"/>
  <unicode hex="00B3"/>
  <outline>
    <contour>
      <point x="659" y="880" type="curve" smooth="yes"/>
      <point x="659" y="946"/>
      <point x="598" y="984"/>
      <point x="494" y="984" type="curve" smooth="yes"/>
      <point x="415" y="984" type="line"/>
      <point x="431" y="1116" type="line"/>
      <point x="506" y="1116" type="line" smooth="yes"/>
      <point x="603" y="1116"/>
      <point x="680" y="1155"/>
      <point x="680" y="1238" type="curve" smooth="yes"/>
      <point x="680" y="1298"/>
      <point x="635" y="1326"/>
      <point x="565" y="1326" type="curve" smooth="yes"/>
      <point x="501" y="1326"/>
      <point x="420" y="1301"/>
      <point x="343" y="1255" type="curve"/>
      <point x="298" y="1368" type="line"/>
      <point x="390" y="1426"/>
      <point x="505" y="1459"/>
      <point x="603" y="1459" type="curve" smooth="yes"/>
      <point x="739" y="1459"/>
      <point x="846" y="1397"/>
      <point x="846" y="1269" type="curve" smooth="yes"/>
      <point x="846" y="1259"/>
      <point x="845" y="1249"/>
      <point x="844" y="1239" type="curve" smooth="yes"/>
      <point x="836" y="1172"/>
      <point x="798" y="1095"/>
      <point x="677" y="1061" type="curve"/>
      <point x="786" y="1033"/>
      <point x="827" y="964"/>
      <point x="827" y="889" type="curve" smooth="yes"/>
      <point x="827" y="880"/>
      <point x="826" y="872"/>
      <point x="825" y="863" type="curve" smooth="yes"/>
      <point x="803" y="688"/>
      <point x="652" y="602"/>
      <point x="491" y="602" type="curve" smooth="yes"/>
      <point x="391" y="602"/>
      <point x="291" y="635"/>
      <point x="222" y="697" type="curve"/>
      <point x="296" y="815" type="line"/>
      <point x="367" y="762"/>
      <point x="437" y="738"/>
      <point x="496" y="738" type="curve" smooth="yes"/>
      <point x="587" y="738"/>
      <point x="659" y="793"/>
    </contour>
  </outline>
</glyph>
<glyph name="ordmasculine" format="1">
  <advance width="903"/>
  <unicode hex="00BA"/>
  <outline>
    <contour>
      <point x="654" y="1126" type="curve" smooth="yes"/>
      <point x="654" y="1238"/>
      <point x="588" y="1303"/>
      <point x="480" y="1303" type="curve" smooth="yes"/>
      <point x="351" y="1303"/>
      <point x="252" y="1203"/>
      <point x="252" y="1050" type="curve" smooth="yes"/>
      <point x="252" y="939"/>
      <point x="314" y="875"/>
      <point x="427" y="875" type="curve" smooth="yes"/>
      <point x="557" y="875"/>
      <point x="654" y="974"/>
    </contour>
    <contour>
      <point x="411" y="727" type="curve" smooth="yes"/>
      <point x="183" y="727"/>
      <point x="72" y="857"/>
      <point x="72" y="1036" type="curve" smooth="yes"/>
      <point x="72" y="1054"/>
      <point x="73" y="1073"/>
      <point x="75" y="1092" type="curve" smooth="yes"/>
      <point x="100" y="1293"/>
      <point x="258" y="1451"/>
      <point x="498" y="1451" type="curve" smooth="yes"/>
      <point x="717" y="1451"/>
      <point x="831" y="1317"/>
      <point x="831" y="1141" type="curve" smooth="yes"/>
      <point x="831" y="1124"/>
      <point x="830" y="1106"/>
      <point x="828" y="1088" type="curve" smooth="yes"/>
      <point x="804" y="890"/>
      <point x="651" y="727"/>
    </contour>
  </outline>
</glyph>
<glyph name="guillemotright" format="1">
  <advance width="1155"/>
  <unicode hex="00BB"/>
  <outline>
    <contour>
      <point x="91" y="162" type="line"/>
      <point x="379" y="541" type="line"/>
      <point x="192" y="920" type="line"/>
      <point x="376" y="920" type="line"/>
      <point x="604" y="541" type="line"/>
      <point x="277" y="162" type="line"/>
    </contour>
    <contour>
      <point x="528" y="162" type="line"/>
      <point x="816" y="541" type="line"/>
      <point x="629" y="920" type="line"/>
      <point x="813" y="920" type="line"/>
      <point x="1041" y="541" type="line"/>
      <point x="713" y="162" type="line"/>
    </contour>
  </outline>
</glyph>
<glyph name="threequarters" format="1">
  <advance width="2376"/>
  <unicode hex="00BE"/>
  <outline>
    <contour>
      <point x="662" y="883" type="curve" smooth="yes"/>
      <point x="662" y="947"/>
      <point x="603" y="984"/>
      <point x="501" y="984" type="curve" smooth="yes"/>
      <point x="419" y="984" type="line"/>
      <point x="436" y="1115" type="line"/>
      <point x="514" y="1115" type="line" smooth="yes"/>
      <point x="608" y="1115"/>
      <point x="683" y="1159"/>
      <point x="683" y="1238" type="curve" smooth="yes"/>
      <point x="683" y="1298"/>
      <point x="637" y="1330"/>
      <point x="568" y="1330" type="curve" smooth="yes"/>
      <point x="504" y="1330"/>
      <point x="426" y="1305"/>
      <point x="346" y="1260" type="curve"/>
      <point x="300" y="1370" type="line"/>
      <point x="396" y="1428"/>
      <point x="509" y="1460"/>
      <point x="609" y="1460" type="curve" smooth="yes"/>
      <point x="745" y="1460"/>
      <point x="853" y="1400"/>
      <point x="853" y="1272" type="curve" smooth="yes"/>
      <point x="853" y="1262"/>
      <point x="852" y="1252"/>
      <point x="851" y="1242" type="curve" smooth="yes"/>
      <point x="843" y="1176"/>
      <point x="802" y="1101"/>
      <point x="686" y="1064" type="curve"/>
      <point x="793" y="1033"/>
      <point x="835" y="965"/>
      <point x="835" y="891" type="curve" smooth="yes"/>
      <point x="835" y="883"/>
      <point x="834" y="874"/>
      <point x="833" y="866" type="curve" smooth="yes"/>
      <point x="811" y="688"/>
      <point x="657" y="603"/>
      <point x="496" y="603" type="curve" smooth="yes"/>
      <point x="395" y="603"/>
      <point x="296" y="636"/>
      <point x="225" y="697" type="curve"/>
      <point x="300" y="814" type="line"/>
      <point x="373" y="762"/>
      <point x="441" y="738"/>
      <point x="500" y="738" type="curve" smooth="yes"/>
      <point x="591" y="738"/>
      <point x="662" y="797"/>
    </contour>
    <contour>
      <point x="1570" y="1" type="line"/>
      <point x="1594" y="193" type="line"/>
      <point x="1223" y="193" type="line"/>
      <point x="1236" y="300" type="line"/>
      <point x="1666" y="808" type="line"/>
      <point x="1834" y="808" type="line"/>
      <point x="1774" y="319" type="line"/>
      <point x="1890" y="319" type="line"/>
      <point x="1875" y="193" type="line"/>
      <point x="1758" y="193" type="line"/>
      <point x="1734" y="1" type="line"/>
    </contour>
    <contour>
      <point x="508" y="0" type="line"/>
      <point x="1578" y="1456" type="line"/>
      <point x="1773" y="1456" type="line"/>
      <point x="704" y="0" type="line"/>
    </contour>
    <contour>
      <point x="1401" y="319" type="line"/>
      <point x="1608" y="319" type="line"/>
      <point x="1643" y="609" type="line"/>
    </contour>
  </outline>
</glyph>
<glyph name="AE" format="1">
  <advance width="2157"/>
  <unicode hex="00C6"/>
  <outline>
    <contour>
      <point x="1433" y="1456" type="move" name="top"/>
    </contour>
    <contour>
      <point x="-68" y="0" type="line"/>
      <point x="965" y="1456" type="line"/>
      <point x="2027" y="1456" type="line"/>
      <point x="2003" y="1254" type="line"/>
      <point x="1334" y="1254" type="line"/>
      <point x="1319" y="844" type="line"/>
      <point x="1939" y="844" type="line"/>
      <point x="1915" y="648" type="line"/>
      <point x="1319" y="648" type="line"/>
      <point x="1305" y="202" type="line"/>
      <point x="1899" y="202" type="line"/>
      <point x="1875" y="0" type="line"/>
      <point x="1047" y="0" type="line"/>
      <point x="1061" y="373" type="line"/>
      <point x="467" y="373" type="line"/>
      <point x="210" y="0" type="line"/>
    </contour>
    <contour>
      <point x="580" y="554" type="line"/>
      <point x="1068" y="554" type="line"/>
      <point x="1103" y="1254" type="line"/>
      <point x="1064" y="1254" type="line"/>
    </contour>
  </outline>
</glyph>
<glyph name="multiply" format="1">
  <advance width="1256"/>
  <unicode hex="00D7"/>
  <outline>
    <contour>
      <point x="304" y="128" type="line"/>
      <point x="177" y="272" type="line"/>
      <point x="488" y="549" type="line"/>
      <point x="246" y="826" type="line"/>
      <point x="407" y="971" type="line"/>
      <point x="651" y="693" type="line"/>
      <point x="962" y="971" type="line"/>
      <point x="1089" y="827" type="line"/>
      <point x="776" y="549" type="line"/>
      <point x="1020" y="272" type="line"/>
      <point x="859" y="128" type="line"/>
      <point x="615" y="404" type="line"/>
    </contour>
  </outline>
</glyph>
<glyph name="Oslash" format="1">
  <advance width="1653"/>
  <unicode hex="00D8"/>
  <outline>
    <contour>
      <point x="346" y="611" type="curve" smooth="yes"/>
      <point x="346" y="462"/>
      <point x="386" y="346"/>
      <point x="467" y="271" type="curve"/>
      <point x="1104" y="1243" type="line"/>
      <point x="1048" y="1271"/>
      <point x="979" y="1286"/>
      <point x="898" y="1286" type="curve" smooth="yes"/>
      <point x="552" y="1286"/>
      <point x="346" y="1008"/>
    </contour>
    <contour>
      <point x="1195" y="1177" type="curve"/>
      <point x="561" y="210" type="line"/>
      <point x="616" y="186"/>
      <point x="681" y="174"/>
      <point x="758" y="174" type="curve" smooth="yes"/>
      <point x="1075" y="174"/>
      <point x="1255" y="388"/>
      <point x="1297" y="733" type="curve" smooth="yes"/>
      <point x="1302" y="773"/>
      <point x="1305" y="812"/>
      <point x="1305" y="849" type="curve" smooth="yes"/>
      <point x="1305" y="988"/>
      <point x="1269" y="1101"/>
    </contour>
    <contour>
      <point x="738" y="-23" type="curve" smooth="yes"/>
      <point x="626" y="-23"/>
      <point x="526" y="-4"/>
      <point x="442" y="30" type="curve"/>
      <point x="340" y="-126" type="line"/>
      <point x="240" y="-75" type="line"/>
      <point x="343" y="82" type="line"/>
      <point x="184" y="188"/>
      <point x="98" y="368"/>
      <point x="98" y="603" type="curve" smooth="yes"/>
      <point x="98" y="645"/>
      <point x="101" y="688"/>
      <point x="106" y="733" type="curve" smooth="yes"/>
      <point x="161" y="1177"/>
      <point x="468" y="1483"/>
      <point x="925" y="1483" type="curve" smooth="yes"/>
      <point x="1039" y="1483"/>
      <point x="1139" y="1463"/>
      <point x="1224" y="1425" type="curve"/>
      <point x="1318" y="1569" type="line"/>
      <point x="1418" y="1517" type="line"/>
      <point x="1321" y="1369" type="line"/>
      <point x="1472" y="1261"/>
      <point x="1555" y="1082"/>
      <point x="1555" y="857" type="curve" smooth="yes"/>
      <point x="1555" y="817"/>
      <point x="1552" y="776"/>
      <point x="1547" y="733" type="curve" smooth="yes"/>
      <point x="1491" y="275"/>
      <point x="1190" y="-23"/>
    </contour>
  </outline>
</glyph>
<glyph name="Thorn" format="1">
  <advance width="1292"/>
  <unicode hex="00DE"/>
  <outline>
    <contour>
      <point x="584" y="336" type="curve" smooth="yes"/>
      <point x="374" y="336" type="line"/>
      <point x="333" y="0" type="line"/>
      <point x="105" y="0" type="line"/>
      <point x="283" y="1456" type="line"/>
      <point x="512" y="1456" type="line"/>
      <point x="483" y="1217" type="line"/>
      <point x="663" y="1217" type="line" smooth="yes"/>
      <point x="979" y="1217"/>
      <point x="1226" y="1155"/>
      <point x="1226" y="854" type="curve" smooth="yes"/>
      <point x="1226" y="483"/>
      <point x="926" y="336"/>
    </contour>
    <contour>
      <point x="977" y="822" type="curve" smooth="yes"/>
      <point x="977" y="985"/>
      <point x="854" y="1023"/>
      <point x="652" y="1023" type="curve" smooth="yes"/>
      <point x="458" y="1023" type="line"/>
      <point x="398" y="531" type="line"/>
      <point x="632" y="531" type="line" smooth="yes"/>
      <point x="837" y="531"/>
      <point x="977" y="617"/>
    </contour>
  </outline>
</glyph>
<glyph name="germandbls" format="1">
  <advance width="1259"/>
  <unicode hex="00DF"/>
  <outline>
    <contour>
      <point x="899" y="370" type="curve" smooth="yes"/>
      <point x="899" y="516"/>
      <point x="787" y="613"/>
      <point x="564" y="725" type="curve"/>
      <point x="585" y="893" type="line"/>
      <point x="729" y="951"/>
      <point x="830" y="1041"/>
      <point x="844" y="1158" type="curve" smooth="yes"/>
      <point x="845" y="1164"/>
      <point x="845" y="1171"/>
      <point x="845" y="1177" type="curve" smooth="yes"/>
      <point x="845" y="1261"/>
      <point x="775" y="1310"/>
      <point x="676" y="1310" type="curve" smooth="yes"/>
      <point x="530" y="1310"/>
      <point x="430" y="1197"/>
      <point x="407" y="1011" type="curve" smooth="yes"/>
      <point x="283" y="0" type="line"/>
      <point x="65" y="0" type="line"/>
      <point x="186" y="1010" type="line" smooth="yes"/>
      <point x="224" y="1327"/>
      <point x="420" y="1488"/>
      <point x="698" y="1488" type="curve" smooth="yes"/>
      <point x="937" y="1488"/>
      <point x="1086" y="1375"/>
      <point x="1086" y="1206" type="curve" smooth="yes"/>
      <point x="1086" y="1011"/>
      <point x="934" y="877"/>
      <point x="742" y="817" type="curve"/>
      <point x="953" y="764"/>
      <point x="1146" y="630"/>
      <point x="1146" y="403" type="curve" smooth="yes"/>
      <point x="1146" y="140"/>
      <point x="940" y="-22"/>
      <point x="727" y="-22" type="curve" smooth="yes"/>
      <point x="548" y="-22"/>
      <point x="408" y="37"/>
      <point x="408" y="37" type="curve"/>
      <point x="468" y="212" type="line" smooth="yes"/>
      <point x="468" y="212"/>
      <point x="582" y="156"/>
      <point x="693" y="156" type="curve" smooth="yes"/>
      <point x="812" y="156"/>
      <point x="899" y="225"/>
    </contour>
  </outline>
</glyph>
<glyph name="ae" format="1">
  <advance width="1782"/>
  <unicode hex="00E6"/>
  <outline>
    <contour>
      <point x="958" y="1026" type="move" name="top"/>
    </contour>
    <contour>
      <point x="1304" y="1052" type="curve" smooth="yes"/>
      <point x="1568" y="1052"/>
      <point x="1682" y="873"/>
      <point x="1682" y="628" type="curve" smooth="yes"/>
      <point x="1682" y="593"/>
      <point x="1679" y="558"/>
      <point x="1675" y="521" type="curve" smooth="yes"/>
      <point x="1672" y="502"/>
      <point x="1665" y="475"/>
      <point x="1665" y="475" type="curve"/>
      <point x="974" y="475" type="line"/>
      <point x="971" y="452" type="line" smooth="yes"/>
      <point x="970" y="441"/>
      <point x="970" y="430"/>
      <point x="970" y="420" type="curve" smooth="yes"/>
      <point x="970" y="245"/>
      <point x="1058" y="159"/>
      <point x="1230" y="159" type="curve" smooth="yes"/>
      <point x="1406" y="159"/>
      <point x="1559" y="269"/>
      <point x="1559" y="269" type="curve"/>
      <point x="1602" y="106" type="line"/>
      <point x="1602" y="106"/>
      <point x="1433" y="-23"/>
      <point x="1198" y="-23" type="curve" smooth="yes"/>
      <point x="1018" y="-23"/>
      <point x="884" y="48"/>
      <point x="828" y="196" type="curve"/>
      <point x="737" y="51"/>
      <point x="570" y="-24"/>
      <point x="404" y="-24" type="curve" smooth="yes"/>
      <point x="188" y="-24"/>
      <point x="47" y="73"/>
      <point x="47" y="248" type="curve" smooth="yes"/>
      <point x="47" y="262"/>
      <point x="48" y="275"/>
      <point x="50" y="290" type="curve" smooth="yes"/>
      <point x="84" y="572"/>
      <point x="328" y="630"/>
      <point x="735" y="630" type="curve" smooth="yes"/>
      <point x="773" y="630" type="line"/>
      <point x="775" y="644"/>
      <point x="775" y="657"/>
      <point x="775" y="670" type="curve" smooth="yes"/>
      <point x="775" y="792"/>
      <point x="706" y="875"/>
      <point x="566" y="875" type="curve" smooth="yes"/>
      <point x="474" y="875"/>
      <point x="359" y="841"/>
      <point x="254" y="794" type="curve"/>
      <point x="208" y="946" type="line"/>
      <point x="244" y="967"/>
      <point x="402" y="1052"/>
      <point x="630" y="1052" type="curve" smooth="yes"/>
      <point x="743" y="1052"/>
      <point x="888" y="990"/>
      <point x="932" y="860" type="curve"/>
      <point x="1019" y="983"/>
      <point x="1166" y="1052"/>
    </contour>
    <contour>
      <point x="270" y="279" type="curve" smooth="yes"/>
      <point x="270" y="191"/>
      <point x="347" y="157"/>
      <point x="439" y="157" type="curve" smooth="yes"/>
      <point x="640" y="157"/>
      <point x="733" y="322"/>
      <point x="754" y="475" type="curve"/>
      <point x="634" y="475" type="line" smooth="yes"/>
      <point x="456" y="475"/>
      <point x="270" y="435"/>
    </contour>
    <contour>
      <point x="1492" y="657" type="curve" smooth="yes"/>
      <point x="1492" y="801"/>
      <point x="1403" y="882"/>
      <point x="1286" y="882" type="curve" smooth="yes"/>
      <point x="1136" y="882"/>
      <point x="1039" y="765"/>
      <point x="994" y="626" type="curve"/>
      <point x="1491" y="626" type="line"/>
      <point x="1492" y="636"/>
      <point x="1492" y="646"/>
    </contour>
  </outline>
</glyph>
<glyph name="eth" format="1">
  <advance width="1219"/>
  <unicode hex="00F0"/>
  <outline>
    <contour>
      <point x="494" y="-23" type="curve"/>
      <point x="220" y="-23"/>
      <point x="63" y="164"/>
      <point x="63" y="399" type="curve" smooth="yes"/>
      <point x="63" y="421"/>
      <point x="64" y="443"/>
      <point x="67" y="465" type="curve" smooth="yes"/>
      <point x="100" y="728"/>
      <point x="306" y="906"/>
      <point x="584" y="906" type="curve" smooth="yes"/>
      <point x="720" y="906"/>
      <point x="831" y="844"/>
      <point x="893" y="745" type="curve"/>
      <point x="894" y="754"/>
      <point x="895" y="768"/>
      <point x="895" y="786" type="curve" smooth="yes"/>
      <point x="895" y="868"/>
      <point x="872" y="1027"/>
      <point x="727" y="1159" type="curve"/>
      <point x="467" y="1021" type="line"/>
      <point x="414" y="1142" type="line"/>
      <point x="608" y="1245" type="line"/>
      <point x="538" y="1289"/>
      <point x="452" y="1325"/>
      <point x="353" y="1348" type="curve"/>
      <point x="449" y="1495" type="line"/>
      <point x="537" y="1480"/>
      <point x="672" y="1434"/>
      <point x="796" y="1344" type="curve"/>
      <point x="1054" y="1480" type="line"/>
      <point x="1106" y="1360" type="line"/>
      <point x="903" y="1252" type="line"/>
      <point x="1016" y="1132"/>
      <point x="1098" y="966"/>
      <point x="1098" y="745" type="curve" smooth="yes"/>
      <point x="1098" y="707"/>
      <point x="1095" y="667"/>
      <point x="1090" y="625" type="curve" smooth="yes"/>
      <point x="1036" y="185"/>
      <point x="818" y="-23"/>
    </contour>
    <contour>
      <point x="295" y="406" type="curve" smooth="yes"/>
      <point x="295" y="247"/>
      <point x="402" y="164"/>
      <point x="529" y="164" type="curve" smooth="yes"/>
      <point x="672" y="164"/>
      <point x="806" y="273"/>
      <point x="828" y="459" type="curve" smooth="yes"/>
      <point x="829" y="470"/>
      <point x="830" y="481"/>
      <point x="830" y="492" type="curve" smooth="yes"/>
      <point x="830" y="633"/>
      <point x="713" y="719"/>
      <point x="589" y="719" type="curve" smooth="yes"/>
      <point x="439" y="719"/>
      <point x="295" y="612"/>
    </contour>
  </outline>
</glyph>
<glyph name="oslash" format="1">
  <advance width="1272"/>
  <unicode hex="00F8"/>
  <outline>
    <contour>
      <point x="334" y="444" type="curve" smooth="yes"/>
      <point x="334" y="351"/>
      <point x="359" y="271"/>
      <point x="415" y="220" type="curve"/>
      <point x="785" y="855" type="line"/>
      <point x="755" y="866"/>
      <point x="721" y="871"/>
      <point x="682" y="871" type="curve" smooth="yes"/>
      <point x="462" y="871"/>
      <point x="334" y="685"/>
    </contour>
    <contour>
      <point x="940" y="583" type="curve" smooth="yes"/>
      <point x="940" y="671"/>
      <point x="918" y="747"/>
      <point x="871" y="798" type="curve"/>
      <point x="504" y="171" type="line"/>
      <point x="531" y="163"/>
      <point x="561" y="159"/>
      <point x="595" y="159" type="curve" smooth="yes"/>
      <point x="819" y="159"/>
      <point x="940" y="347"/>
    </contour>
    <contour>
      <point x="574" y="-23" type="curve" smooth="yes"/>
      <point x="511" y="-23"/>
      <point x="453" y="-15"/>
      <point x="403" y="-1" type="curve"/>
      <point x="282" y="-209" type="line"/>
      <point x="189" y="-166" type="line"/>
      <point x="308" y="38" type="line"/>
      <point x="168" y="115"/>
      <point x="99" y="259"/>
      <point x="99" y="430" type="curve" smooth="yes"/>
      <point x="99" y="457"/>
      <point x="101" y="485"/>
      <point x="104" y="513" type="curve" smooth="yes"/>
      <point x="141" y="817"/>
      <point x="357" y="1052"/>
      <point x="707" y="1052" type="curve" smooth="yes"/>
      <point x="774" y="1052"/>
      <point x="834" y="1044"/>
      <point x="886" y="1028" type="curve"/>
      <point x="993" y="1211" type="line"/>
      <point x="1086" y="1167" type="line"/>
      <point x="981" y="987" type="line"/>
      <point x="1113" y="910"/>
      <point x="1176" y="772"/>
      <point x="1176" y="602" type="curve" smooth="yes"/>
      <point x="1176" y="573"/>
      <point x="1174" y="542"/>
      <point x="1170" y="511" type="curve" smooth="yes"/>
      <point x="1133" y="218"/>
      <point x="923" y="-23"/>
    </contour>
  </outline>
</glyph>
<glyph name="Hbar" format="1">
  <advance width="1564"/>
  <unicode hex="0126"/>
  <outline>
    <component base="H"/>
    <contour>
      <point x="138" y="1110" type="line"/>
      <point x="154" y="1243" type="line"/>
      <point x="1525" y="1243" type="line"/>
      <point x="1509" y="1110" type="line"/>
    </contour>
  </outline>
</glyph>
<glyph name="lslash" format="1">
  <advance width="503"/>
  <unicode hex="0142"/>
  <outline>
    <contour>
      <point x="42" y="0" type="line"/>
      <point x="130" y="715" type="line"/>
      <point x="-10" y="615" type="line"/>
      <point x="14" y="811" type="line"/>
      <point x="153" y="911" type="line"/>
      <point x="222" y="1468" type="line"/>
      <point x="447" y="1468" type="line"/>
      <point x="397" y="1070" type="line"/>
      <point x="532" y="1168" type="line"/>
      <point x="507" y="971" type="line"/>
      <point x="374" y="870" type="line"/>
      <point x="267" y="0" type="line"/>
    </contour>
  </outline>
</glyph>
<glyph name="oe" format="1">
  <advance width="1993"/>
  <unicode hex="0153"/>
  <outline>
    <contour>
      <point x="566" y="-22" type="curve" smooth="yes"/>
      <point x="260" y="-22"/>
      <point x="93" y="166"/>
      <point x="93" y="430" type="curve" smooth="yes"/>
      <point x="93" y="456"/>
      <point x="95" y="483"/>
      <point x="98" y="511" type="curve" smooth="yes"/>
      <point x="135" y="813"/>
      <point x="352" y="1052"/>
      <point x="694" y="1052" type="curve" smooth="yes"/>
      <point x="886" y="1052"/>
      <point x="1003" y="969"/>
      <point x="1064" y="853" type="curve"/>
      <point x="1157" y="980"/>
      <point x="1278" y="1055"/>
      <point x="1466" y="1055" type="curve" smooth="yes"/>
      <point x="1727" y="1055"/>
      <point x="1866" y="881"/>
      <point x="1866" y="615" type="curve" smooth="yes"/>
      <point x="1866" y="581"/>
      <point x="1864" y="546"/>
      <point x="1859" y="509" type="curve" smooth="yes"/>
      <point x="1852" y="449" type="line"/>
      <point x="1125" y="449" type="line"/>
      <point x="1126" y="448"/>
      <point x="1124" y="423"/>
      <point x="1124" y="422" type="curve" smooth="yes"/>
      <point x="1124" y="407" type="line" smooth="yes"/>
      <point x="1124" y="249"/>
      <point x="1229" y="159"/>
      <point x="1412" y="159" type="curve" smooth="yes"/>
      <point x="1600" y="159"/>
      <point x="1744" y="266"/>
      <point x="1744" y="266" type="curve"/>
      <point x="1788" y="103" type="line"/>
      <point x="1788" y="103"/>
      <point x="1629" y="-22"/>
      <point x="1365" y="-22" type="curve" smooth="yes"/>
      <point x="1200" y="-22"/>
      <point x="1038" y="57"/>
      <point x="981" y="181" type="curve"/>
      <point x="899" y="58"/>
      <point x="730" y="-22"/>
    </contour>
    <contour>
      <point x="912" y="593" type="curve" smooth="yes"/>
      <point x="912" y="756"/>
      <point x="843" y="871"/>
      <point x="672" y="871" type="curve" smooth="yes"/>
      <point x="465" y="871"/>
      <point x="327" y="681"/>
      <point x="327" y="443" type="curve" smooth="yes"/>
      <point x="327" y="282"/>
      <point x="406" y="159"/>
      <point x="592" y="159" type="curve" smooth="yes"/>
      <point x="802" y="159"/>
      <point x="912" y="363"/>
    </contour>
    <contour>
      <point x="1663" y="664" type="curve" smooth="yes"/>
      <point x="1663" y="792"/>
      <point x="1571" y="873"/>
      <point x="1443" y="873" type="curve" smooth="yes"/>
      <point x="1301" y="873"/>
      <point x="1185" y="773"/>
      <point x="1150" y="631" type="curve"/>
      <point x="1661" y="631" type="line"/>
      <point x="1662" y="641"/>
      <point x="1663" y="653"/>
    </contour>
  </outline>
</glyph>
<glyph name="florin" format="1">
  <advance width="1095"/>
  <unicode hex="0192"/>
  <outline>
    <contour>
      <point x="95" y="-309" type="curve" smooth="yes"/>
      <point x="85" y="-309"/>
      <point x="35" y="-305"/>
      <point x="-11" y="-291" type="curve"/>
      <point x="26" y="-126" type="line"/>
      <point x="35" y="-128"/>
      <point x="72" y="-136"/>
      <point x="108" y="-136" type="curve" smooth="yes"/>
      <point x="172" y="-136"/>
      <point x="243" y="-106"/>
      <point x="295" y="67" type="curve" smooth="yes"/>
      <point x="489" y="705" type="line"/>
      <point x="344" y="705" type="line"/>
      <point x="395" y="850" type="line"/>
      <point x="533" y="850" type="line"/>
      <point x="614" y="1115" type="line"/>
      <point x="661" y="1264"/>
      <point x="745" y="1458"/>
      <point x="1005" y="1458" type="curve" smooth="yes"/>
      <point x="1120" y="1458"/>
      <point x="1179" y="1417"/>
      <point x="1179" y="1417" type="curve"/>
      <point x="1142" y="1257" type="line"/>
      <point x="1125" y="1262"/>
      <point x="1071" y="1277"/>
      <point x="1027" y="1277" type="curve" smooth="yes"/>
      <point x="955" y="1277"/>
      <point x="889" y="1245"/>
      <point x="848" y="1119" type="curve"/>
      <point x="763" y="850" type="line"/>
      <point x="945" y="850" type="line"/>
      <point x="898" y="705" type="line"/>
      <point x="714" y="705" type="line"/>
      <point x="519" y="61" type="line" smooth="yes"/>
      <point x="439" y="-205"/>
      <point x="316" y="-309"/>
    </contour>
  </outline>
</glyph>
<glyph name="dotlessj" format="1">
  <advance width="544"/>
  <unicode hex="0237"/>
  <outline>
    <contour>
      <point x="381" y="1026" type="move" name="top"/>
    </contour>
    <contour>
      <point x="-32" y="-394" type="curve" smooth="yes"/>
      <point x="-107" y="-394"/>
      <point x="-165" y="-379"/>
      <point x="-186" y="-375" type="curve"/>
      <point x="-154" y="-208" type="line"/>
      <point x="-136" y="-212"/>
      <point x="-88" y="-224"/>
      <point x="-40" y="-224" type="curve" smooth="yes"/>
      <point x="63" y="-224"/>
      <point x="125" y="-161"/>
      <point x="149" y="32" type="curve" smooth="yes"/>
      <point x="271" y="1026" type="line"/>
      <point x="488" y="1026" type="line"/>
      <point x="369" y="55" type="line" smooth="yes"/>
      <point x="341" y="-175"/>
      <point x="263" y="-394"/>
    </contour>
  </outline>
</glyph>
<glyph name="breve" format="1">
  <advance width="668"/>
  <unicode hex="02D8"/>
  <outline>
    <contour>
      <point x="304" y="1026" type="move" name="_top"/>
    </contour>
    <contour>
      <point x="318" y="1174" type="curve" smooth="yes"/>
      <point x="145" y="1174"/>
      <point x="47" y="1249"/>
      <point x="47" y="1427" type="curve" smooth="yes"/>
      <point x="47" y="1436"/>
      <point x="47" y="1446"/>
      <point x="48" y="1456" type="curve"/>
      <point x="206" y="1456" type="line"/>
      <point x="206" y="1445" type="line" smooth="yes"/>
      <point x="206" y="1352"/>
      <point x="266" y="1332"/>
      <point x="338" y="1332" type="curve" smooth="yes"/>
      <point x="413" y="1332"/>
      <point x="476" y="1353"/>
      <point x="499" y="1456" type="curve"/>
      <point x="655" y="1456" type="line"/>
      <point x="617" y="1257"/>
      <point x="500" y="1174"/>
    </contour>
  </outline>
</glyph>
<glyph name="ring" format="1">
  <advance width="672"/>
  <unicode hex="02DA"/>
  <outline>
    <contour>
      <point x="350" y="1500" type="move" name="top"/>
    </contour>
    <contour>
      <point x="298" y="1026" type="move" name="_top"/>
    </contour>
    <contour>
      <point x="439" y="1355" type="curve" smooth="yes"/>
      <point x="439" y="1409"/>
      <point x="399" y="1450"/>
      <point x="344" y="1450" type="curve" smooth="yes"/>
      <point x="283" y="1450"/>
      <point x="224" y="1398"/>
      <point x="224" y="1329" type="curve" smooth="yes"/>
      <point x="224" y="1275"/>
      <point x="264" y="1233"/>
      <point x="318" y="1233" type="curve" smooth="yes"/>
      <point x="380" y="1233"/>
      <point x="439" y="1286"/>
    </contour>
    <contour>
      <point x="357" y="1549" type="curve" smooth="yes"/>
      <point x="466" y="1549"/>
      <point x="547" y="1475"/>
      <point x="547" y="1368" type="curve" smooth="yes"/>
      <point x="547" y="1232"/>
      <point x="427" y="1135"/>
      <point x="306" y="1135" type="curve" smooth="yes"/>
      <point x="197" y="1135"/>
      <point x="116" y="1210"/>
      <point x="116" y="1316" type="curve" smooth="yes"/>
      <point x="116" y="1453"/>
      <point x="235" y="1549"/>
    </contour>
  </outline>
</glyph>
<glyph name="ogonek" format="1">
  <advance width="508"/>
  <unicode hex="02DB"/>
  <outline>
    <contour>
      <point x="291" y="19" type="curve"/>
      <point x="412" y="17" type="line"/>
      <point x="312" y="-40"/>
      <point x="226" y="-133"/>
      <point x="226" y="-203" type="curve" smooth="yes"/>
      <point x="226" y="-240"/>
      <point x="257" y="-256"/>
      <point x="308" y="-256" type="curve" smooth="yes"/>
      <point x="363" y="-256"/>
      <point x="437" y="-234"/>
      <point x="471" y="-225" type="curve"/>
      <point x="455" y="-355" type="line"/>
      <point x="378" y="-378"/>
      <point x="297" y="-392"/>
      <point x="228" y="-392" type="curve" smooth="yes"/>
      <point x="110" y="-392"/>
      <point x="22" y="-352"/>
      <point x="22" y="-262" type="curve" smooth="yes"/>
      <point x="22" y="-113"/>
      <point x="199" y="-24"/>
    </contour>
  </outline>
</glyph>
<glyph name="tilde" format="1">
  <advance width="711"/>
  <unicode hex="02DC"/>
  <outline>
    <contour>
      <point x="357" y="1026" type="move" name="_top"/>
    </contour>
    <contour>
      <point x="212" y="1271" type="curve" smooth="yes"/>
      <point x="179" y="1271"/>
      <point x="145" y="1243"/>
      <point x="129" y="1171" type="curve"/>
      <point x="-15" y="1171" type="line"/>
      <point x="5" y="1332"/>
      <point x="100" y="1442"/>
      <point x="223" y="1442" type="curve" smooth="yes"/>
      <point x="342" y="1442"/>
      <point x="432" y="1338"/>
      <point x="506" y="1338" type="curve" smooth="yes"/>
      <point x="542" y="1338"/>
      <point x="568" y="1360"/>
      <point x="580" y="1442" type="curve"/>
      <point x="727" y="1442" type="line"/>
      <point x="705" y="1261"/>
      <point x="613" y="1166"/>
      <point x="486" y="1166" type="curve" smooth="yes"/>
      <point x="392" y="1166"/>
      <point x="278" y="1271"/>
    </contour>
  </outline>
</glyph>
<glyph name="uni0311" format="1">
  <advance width="629"/>
  <unicode hex="0311"/>
  <outline>
    <contour>
      <point x="281" y="1026" type="move" name="_top"/>
    </contour>
    <contour>
      <point x="2" y="1173" type="line"/>
      <point x="38" y="1353"/>
      <point x="167" y="1440"/>
      <point x="331" y="1440" type="curve" smooth="yes"/>
      <point x="488" y="1440"/>
      <point x="594" y="1361"/>
      <point x="594" y="1194" type="curve" smooth="yes"/>
      <point x="594" y="1187"/>
      <point x="593" y="1180"/>
      <point x="593" y="1173" type="curve"/>
      <point x="453" y="1173" type="line"/>
      <point x="452" y="1264"/>
      <point x="381" y="1295"/>
      <point x="314" y="1295" type="curve" smooth="yes"/>
      <point x="247" y="1295"/>
      <point x="166" y="1263"/>
      <point x="145" y="1173" type="curve"/>
    </contour>
  </outline>
</glyph>
<glyph name="Omega" format="1">
  <advance width="1603"/>
  <unicode hex="03A9"/>
  <outline>
    <contour>
      <point x="887" y="1481" type="curve" smooth="yes"/>
      <point x="1261" y="1481"/>
      <point x="1502" y="1251"/>
      <point x="1502" y="905" type="curve" smooth="yes"/>
      <point x="1502" y="873"/>
      <point x="1500" y="841"/>
      <point x="1496" y="808" type="curve" smooth="yes"/>
      <point x="1463" y="546"/>
      <point x="1330" y="324"/>
      <point x="1134" y="180" type="curve"/>
      <point x="1441" y="181" type="line"/>
      <point x="1400" y="0" type="line"/>
      <point x="820" y="0" type="line"/>
      <point x="839" y="156" type="line"/>
      <point x="1047" y="283"/>
      <point x="1220" y="518"/>
      <point x="1252" y="781" type="curve" smooth="yes"/>
      <point x="1255" y="809"/>
      <point x="1257" y="836"/>
      <point x="1257" y="865" type="curve" smooth="yes"/>
      <point x="1257" y="1072"/>
      <point x="1161" y="1290"/>
      <point x="862" y="1290" type="curve" smooth="yes"/>
      <point x="533" y="1290"/>
      <point x="371" y="1020"/>
      <point x="341" y="782" type="curve" smooth="yes"/>
      <point x="337" y="752"/>
      <point x="336" y="721"/>
      <point x="336" y="692" type="curve" smooth="yes"/>
      <point x="336" y="466"/>
      <point x="441" y="267"/>
      <point x="598" y="156" type="curve"/>
      <point x="579" y="0" type="line"/>
      <point x="-9" y="0" type="line"/>
      <point x="-9" y="181" type="line"/>
      <point x="308" y="180" type="line"/>
      <point x="170" y="304"/>
      <point x="98" y="483"/>
      <point x="98" y="692" type="curve" smooth="yes"/>
      <point x="98" y="1179"/>
      <point x="451" y="1481"/>
    </contour>
  </outline>
</glyph>
<glyph name="quotedblleft" format="1">
  <advance width="1024"/>
  <unicode hex="201C"/>
  <outline>
    <contour>
      <point x="108" y="871" type="line"/>
      <point x="361" y="1456" type="line"/>
      <point x="548" y="1456" type="line"/>
      <point x="364" y="871" type="line"/>
    </contour>
    <contour>
      <point x="538" y="871" type="line"/>
      <point x="781" y="1456" type="line"/>
      <point x="969" y="1456" type="line"/>
      <point x="786" y="871" type="line"/>
    </contour>
  </outline>
</glyph>
<glyph name="quotedblright" format="1">
  <advance width="1024"/>
  <unicode hex="201D"/>
  <outline>
    <contour>
      <point x="150" y="871" type="line"/>
      <point x="330" y="1456" type="line"/>
      <point x="578" y="1456" type="line"/>
      <point x="341" y="871" type="line"/>
    </contour>
    <contour>
      <point x="540" y="871" type="line"/>
      <point x="722" y="1456" type="line"/>
      <point x="968" y="1456" type="line"/>
      <point x="731" y="871" type="line"/>
    </contour>
  </outline>
</glyph>
<glyph name="bullet" format="1">
  <advance width="989"/>
  <unicode hex="2022"/>
  <outline>
    <contour>
      <point x="537" y="1010" type="curve"/>
      <point x="718" y="1010"/>
      <point x="837" y="881"/>
      <point x="837" y="724" type="curve" smooth="yes"/>
      <point x="837" y="522"/>
      <point x="654" y="366"/>
      <point x="457" y="366" type="curve"/>
      <point x="273" y="366"/>
      <point x="161" y="492"/>
      <point x="161" y="646" type="curve" smooth="yes"/>
      <point x="161" y="849"/>
      <point x="340" y="1010"/>
    </contour>
  </outline>
</glyph>
<glyph name="guilsinglleft" format="1">
  <advance width="709"/>
  <unicode hex="2039"/>
  <outline>
    <contour>
      <point x="366" y="162" type="line"/>
      <point x="138" y="541" type="line"/>
      <point x="465" y="920" type="line"/>
      <point x="651" y="920" type="line"/>
      <point x="363" y="540" type="line"/>
      <point x="550" y="162" type="line"/>
    </contour>
  </outline>
</glyph>
<glyph name="guilsinglright" format="1">
  <advance width="709"/>
  <unicode hex="203A"/>
  <outline>
    <contour>
      <point x="71" y="161" type="line"/>
      <point x="359" y="541" type="line"/>
      <point x="172" y="919" type="line"/>
      <point x="355" y="919" type="line"/>
      <point x="583" y="540" type="line"/>
      <point x="256" y="161" type="line"/>
    </contour>
  </outline>
</glyph>
<glyph name="Euro" format="1">
  <advance width="1492"/>
  <unicode hex="20AC"/>
  <outline>
    <contour>
      <point x="269" y="832" type="curve"/>
      <point x="101" y="832" type="line"/>
      <point x="120" y="950" type="line"/>
      <point x="305" y="950" type="line"/>
      <point x="434" y="1291"/>
      <point x="741" y="1483"/>
      <point x="1052" y="1483" type="curve" smooth="yes"/>
      <point x="1222" y="1483"/>
      <point x="1379" y="1444"/>
      <point x="1509" y="1328" type="curve"/>
      <point x="1399" y="1169" type="line"/>
      <point x="1284" y="1259"/>
      <point x="1167" y="1286"/>
      <point x="1047" y="1286" type="curve" smooth="yes"/>
      <point x="837" y="1286"/>
      <point x="652" y="1154"/>
      <point x="556" y="950" type="curve"/>
      <point x="1034" y="950" type="line"/>
      <point x="1013" y="832" type="line"/>
      <point x="513" y="832" type="line"/>
      <point x="497" y="774"/>
      <point x="487" y="704"/>
      <point x="487" y="633" type="curve" smooth="yes"/>
      <point x="487" y="624" type="line"/>
      <point x="958" y="624" type="line"/>
      <point x="938" y="512" type="line"/>
      <point x="499" y="512" type="line"/>
      <point x="542" y="299"/>
      <point x="703" y="175"/>
      <point x="921" y="175" type="curve" smooth="yes"/>
      <point x="1053" y="175"/>
      <point x="1195" y="216"/>
      <point x="1345" y="322" type="curve"/>
      <point x="1400" y="139" type="line"/>
      <point x="1234" y="23"/>
      <point x="1058" y="-22"/>
      <point x="884" y="-22" type="curve" smooth="yes"/>
      <point x="567" y="-22"/>
      <point x="290" y="160"/>
      <point x="248" y="512" type="curve"/>
      <point x="63" y="512" type="line"/>
      <point x="81" y="624" type="line"/>
      <point x="243" y="624" type="line"/>
      <point x="244" y="697"/>
      <point x="254" y="770"/>
    </contour>
  </outline>
</glyph>
<glyph name="estimated" format="1">
  <advance width="1203"/>
  <unicode hex="212E"/>
  <outline>
    <contour>
      <point x="1069" y="655" type="curve"/>
      <point x="337" y="655" type="line"/>
      <point x="332" y="614"/>
      <point x="329" y="576"/>
      <point x="329" y="541" type="curve" smooth="yes"/>
      <point x="329" y="296"/>
      <point x="448" y="176"/>
      <point x="623" y="176" type="curve" smooth="yes"/>
      <point x="725" y="176"/>
      <point x="850" y="218"/>
      <point x="985" y="299" type="curve"/>
      <point x="1006" y="247" type="line"/>
      <point x="859" y="158"/>
      <point x="702" y="114"/>
      <point x="560" y="114" type="curve" smooth="yes"/>
      <point x="299" y="114"/>
      <point x="89" y="265"/>
      <point x="89" y="565" type="curve" smooth="yes"/>
      <point x="89" y="593"/>
      <point x="91" y="622"/>
      <point x="95" y="652" type="curve" smooth="yes"/>
      <point x="144" y="1050"/>
      <point x="425" y="1199"/>
      <point x="678" y="1199" type="curve" smooth="yes"/>
      <point x="891" y="1199"/>
      <point x="1085" y="1097"/>
      <point x="1085" y="798" type="curve" smooth="yes"/>
      <point x="1085" y="752"/>
      <point x="1084" y="696"/>
    </contour>
    <contour>
      <point x="346" y="713" type="curve"/>
      <point x="879" y="713" type="line"/>
      <point x="884" y="756"/>
      <point x="887" y="795"/>
      <point x="887" y="830" type="curve" smooth="yes"/>
      <point x="887" y="1062"/>
      <point x="781" y="1141"/>
      <point x="668" y="1141" type="curve" smooth="yes"/>
      <point x="538" y="1141"/>
      <point x="387" y="1036"/>
    </contour>
  </outline>
</glyph>
<glyph name="partialdiff" format="1">
  <advance width="1162"/>
  <unicode hex="2202"/>
  <outline>
    <contour>
      <point x="388" y="-24" type="curve"/>
      <point x="137" y="-24"/>
      <point x="14" y="134"/>
      <point x="14" y="349" type="curve" smooth="yes"/>
      <point x="14" y="374"/>
      <point x="16" y="399"/>
      <point x="19" y="426" type="curve" smooth="yes"/>
      <point x="58" y="749"/>
      <point x="323" y="1002"/>
      <point x="608" y="1002" type="curve" smooth="yes"/>
      <point x="743" y="1002"/>
      <point x="831" y="931"/>
      <point x="850" y="866" type="curve"/>
      <point x="851" y="874"/>
      <point x="860" y="946"/>
      <point x="860" y="954" type="curve" smooth="yes"/>
      <point x="862" y="975"/>
      <point x="863" y="995"/>
      <point x="863" y="1014" type="curve" smooth="yes"/>
      <point x="863" y="1208"/>
      <point x="772" y="1327"/>
      <point x="622" y="1327" type="curve" smooth="yes"/>
      <point x="492" y="1327"/>
      <point x="378" y="1273"/>
      <point x="318" y="1241" type="curve"/>
      <point x="325" y="1406" type="line"/>
      <point x="418" y="1467"/>
      <point x="544" y="1507"/>
      <point x="662" y="1507" type="curve"/>
      <point x="794" y="1351"/>
      <point x="1088" y="1351"/>
      <point x="1088" y="1004" type="curve" smooth="yes"/>
      <point x="1088" y="951"/>
      <point x="1085" y="894"/>
      <point x="1077" y="832" type="curve" smooth="yes"/>
      <point x="1025" y="409"/>
      <point x="782" y="-24"/>
    </contour>
    <contour>
      <point x="243" y="368" type="curve" smooth="yes"/>
      <point x="243" y="241"/>
      <point x="304" y="159"/>
      <point x="411" y="159" type="curve" smooth="yes"/>
      <point x="582" y="159"/>
      <point x="717" y="301"/>
      <point x="807" y="648" type="curve"/>
      <point x="781" y="737"/>
      <point x="705" y="824"/>
      <point x="601" y="824" type="curve" smooth="yes"/>
      <point x="420" y="824"/>
      <point x="243" y="611"/>
    </contour>
  </outline>
</glyph>
<glyph name="increment" format="1">
  <advance width="1390"/>
  <unicode hex="2206"/>
  <outline>
    <contour>
      <point x="-28" y="0" type="line"/>
      <point x="-11" y="147" type="line"/>
      <point x="678" y="1456" type="line"/>
      <point x="899" y="1456" type="line"/>
      <point x="1257" y="154" type="line"/>
      <point x="1239" y="0" type="line"/>
    </contour>
    <contour>
      <point x="233" y="183" type="line"/>
      <point x="997" y="183" type="line"/>
      <point x="739" y="1195" type="line"/>
    </contour>
  </outline>
</glyph>
<glyph name="infinity" format="1">
  <advance width="1736"/>
  <unicode hex="221E"/>
  <outline>
    <contour>
      <point x="505" y="966" type="curve" smooth="yes"/>
      <point x="670" y="966"/>
      <point x="787" y="869"/>
      <point x="886" y="711" type="curve"/>
      <point x="1016" y="865"/>
      <point x="1151" y="966"/>
      <point x="1321" y="966" type="curve" smooth="yes"/>
      <point x="1523" y="966"/>
      <point x="1643" y="840"/>
      <point x="1643" y="659" type="curve" smooth="yes"/>
      <point x="1643" y="404"/>
      <point x="1439" y="233"/>
      <point x="1229" y="233" type="curve" smooth="yes"/>
      <point x="1080" y="233"/>
      <point x="968" y="313"/>
      <point x="856" y="486" type="curve"/>
      <point x="721" y="334"/>
      <point x="582" y="233"/>
      <point x="420" y="233" type="curve" smooth="yes"/>
      <point x="220" y="233"/>
      <point x="96" y="383"/>
      <point x="96" y="569" type="curve" smooth="yes"/>
      <point x="96" y="797"/>
      <point x="297" y="966"/>
    </contour>
    <contour>
      <point x="252" y="571" type="curve" smooth="yes"/>
      <point x="252" y="469"/>
      <point x="323" y="377"/>
      <point x="450" y="377" type="curve" smooth="yes"/>
      <point x="576" y="377"/>
      <point x="694" y="476"/>
      <point x="798" y="597" type="curve"/>
      <point x="724" y="724"/>
      <point x="631" y="822"/>
      <point x="495" y="822" type="curve" smooth="yes"/>
      <point x="351" y="822"/>
      <point x="252" y="711"/>
    </contour>
    <contour>
      <point x="1248" y="377" type="curve" smooth="yes"/>
      <point x="1395" y="377"/>
      <point x="1466" y="486"/>
      <point x="1483" y="625" type="curve" smooth="yes"/>
      <point x="1484" y="634"/>
      <point x="1485" y="642"/>
      <point x="1485" y="651" type="curve" smooth="yes"/>
      <point x="1485" y="745"/>
      <point x="1415" y="822"/>
      <point x="1298" y="822" type="curve" smooth="yes"/>
      <point x="1170" y="822"/>
      <point x="1044" y="715"/>
      <point x="949" y="599" type="curve"/>
      <point x="1047" y="454"/>
      <point x="1128" y="377"/>
    </contour>
  </outline>
</glyph>
<glyph name="integral" format="1">
  <advance width="792"/>
  <unicode hex="222B"/>
  <outline>
    <contour>
      <point x="84" y="-316" type="curve" smooth="yes"/>
      <point x="-16" y="-316"/>
      <point x="-74" y="-292"/>
      <point x="-74" y="-292" type="curve"/>
      <point x="-53" y="-121" type="line"/>
      <point x="-53" y="-121"/>
      <point x="28" y="-137"/>
      <point x="87" y="-137" type="curve" smooth="yes"/>
      <point x="187" y="-137"/>
      <point x="212" y="-73"/>
      <point x="226" y="44" type="curve" smooth="yes"/>
      <point x="365" y="1170" type="line" smooth="yes"/>
      <point x="392" y="1389"/>
      <point x="490" y="1552"/>
      <point x="719" y="1552" type="curve" smooth="yes"/>
      <point x="810" y="1552"/>
      <point x="878" y="1528"/>
      <point x="878" y="1528" type="curve"/>
      <point x="856" y="1351" type="line"/>
      <point x="856" y="1351"/>
      <point x="788" y="1371"/>
      <point x="731" y="1371" type="curve" smooth="yes"/>
      <point x="629" y="1371"/>
      <point x="599" y="1309"/>
      <point x="585" y="1191" type="curve" smooth="yes"/>
      <point x="446" y="65" type="line" smooth="yes"/>
      <point x="419" y="-155"/>
      <point x="315" y="-316"/>
    </contour>
  </outline>
</glyph>
